<svg height="512pt" viewBox="0 -26 512.00039 512" width="512pt" xmlns="http://www.w3.org/2000/svg"><path d="m357.972656 298.605469c14.441406 0 27.898438-7.339844 35.710938-19.488281l14.5625-22.503907c2.558594-3.957031 1.421875-9.238281-2.535156-11.796875-1.175782-.757812-2.515626-1.214844-3.90625-1.332031l-26.703126-2.261719c-17.289062-1.507812-33.761718 7.648438-41.605468 23.128906l-8.949219 17.566407c-2.140625 4.195312-.476563 9.335937 3.722656 11.476562.710938.359375 1.464844.621094 2.25.773438l19.363281 3.675781c2.667969.507812 5.375.761719 8.089844.761719zm-9.273437-26.449219c4.703125-9.292969 14.585937-14.789062 24.960937-13.878906l12.542969 1.066406-6.828125 10.5625c-5.640625 8.753906-16.039062 13.195312-26.265625 11.226562l-8.183594-1.554687zm0 0"/><path d="m70.015625 345.023438 14.363281-22.625c2.527344-3.980469 1.347656-9.25-2.628906-11.773438-1.183594-.753906-2.535156-1.199219-3.929688-1.304688l-26.722656-2.023437c-17.300781-1.355469-33.6875 7.941406-41.402344 23.488281l-8.792968 17.640625c-2.105469 4.214844-.398438 9.339844 3.816406 11.445313.726562.363281 1.5.621094 2.300781.765625l19.398438 3.503906c2.535156.453125 5.105469.679687 7.679687.683594 14.578125 0 28.136719-7.472657 35.917969-19.800781zm-14.445313-9.144532c-5.539062 8.828125-15.910156 13.375-26.15625 11.464844l-8.199218-1.484375 3.71875-7.457031c4.605468-9.347656 14.457031-14.9375 24.84375-14.09375l12.539062.945312zm0 0"/><path d="m494.746094 406.953125c-10.097656-14.128906-27.777344-20.683594-44.644532-16.550781l-19.152343 4.605468c-4.582031 1.105469-7.398438 5.714844-6.289063 10.296876.1875.78125.488282 1.535156.886719 2.234374l9.804687 17.105469c8.621094 15.03125 25.480469 23.355469 42.65625 21.054688l26.558594-3.574219c4.667969-.625 7.945313-4.917969 7.320313-9.585938-.1875-1.390624-.710938-2.710937-1.53125-3.847656zm-18.984375 21.855469c-10.308594 1.40625-20.441407-3.59375-25.59375-12.632813l-4.144531-7.234375 8.105468-1.964844c10.117188-2.457031 20.714844 1.472657 26.777344 9.941407l7.347656 10.234375zm0 0"/><path d="m177.132812 263.625c3.164063-3.574219 6.195313-7.3125 9.007813-11.089844 2.800781-3.792968 1.996094-9.136718-1.796875-11.9375-3.792969-2.796875-9.136719-1.992187-11.9375 1.800782-2.507812 3.414062-5.222656 6.757812-8.054688 9.949218-3.121093 3.535156-2.789062 8.929688.742188 12.054688 3.535156 3.125 8.933594 2.792968 12.054688-.742188zm0 0"/><path d="m101.28125 310.863281c.898438 0 1.789062-.140625 2.644531-.417969l3.453125-1.125c15.222656-4.964843 29.605469-12.207031 42.660156-21.472656 3.921876-2.613281 4.984376-7.90625 2.375-11.832031-2.609374-3.921875-7.90625-4.984375-11.828124-2.375-.140626.09375-.277344.191406-.410157.289063-11.667969 8.273437-24.519531 14.730468-38.117187 19.164062l-3.457032 1.117188c-4.484374 1.441406-6.953124 6.246093-5.511718 10.734374 1.136718 3.535157 4.433594 5.929688 8.148437 5.917969zm0 0"/><path d="m494.824219 210.789062c5.609375-5.613281 10.792969-11.640624 15.507812-18.023437 2.800781-3.792969 1.992188-9.136719-1.800781-11.9375-3.792969-2.796875-9.136719-1.992187-11.933594 1.800781-4.207031 5.707032-8.835937 11.085938-13.847656 16.097656-3.332031 3.335938-3.328125 8.738282.003906 12.070313 3.335938 3.328125 8.738282 3.328125 12.070313-.007813zm0 0"/><path d="m422.835938 234.492188c-4.484376 1.441406-6.953126 6.246093-5.511719 10.730468 1.136719 3.539063 4.433593 5.933594 8.148437 5.921875.898438 0 1.789063-.140625 2.644532-.417969l3.453124-1.125c15.234376-4.96875 29.632813-12.203124 42.707032-21.464843 3.847656-2.726563 4.757812-8.054688 2.03125-11.902344-2.726563-3.847656-8.054688-4.757813-11.898438-2.03125-11.667968 8.277344-24.519531 14.738281-38.121094 19.171875zm0 0"/><path d="m404.050781 397.03125c4.34375 1.824219 9.34375-.21875 11.171875-4.5625 1.824219-4.34375-.21875-9.34375-4.5625-11.171875-19.78125-8.339844-37.429687-21.035156-51.632812-37.136719-3.261719-3.398437-8.664063-3.507812-12.0625-.242187-3.1875 3.066406-3.507813 8.058593-.734375 11.503906 15.902343 18.039063 35.664062 32.257813 57.820312 41.609375zm0 0"/><path d="m426.683594 443.636719h-73.25l-9.828125-9.820313c-18.027344-18.007812-28.675781-42.097656-29.859375-67.550781l-6.21875-131.3125 44.8125-19.195313c7.183594-2.375 13.609375-6.613281 18.617187-12.285156l28.9375-32.839844h28.921875c4.710938 0 8.53125-3.820312 8.53125-8.53125 0-4.710937-3.820312-8.53125-8.53125-8.53125h-13.882812l13.300781-15.089843c9.226563-9.226563 9.222656-24.183594-.003906-33.410157-2.183594-2.179687-4.773438-3.914062-7.621094-5.101562-9.035156-3.605469-19.347656-1.425781-26.148437 5.527344l-1.902344 1.886718v-13.53125c0-4.710937-3.820313-8.53125-8.53125-8.53125-4.710938 0-8.53125 3.820313-8.53125 8.53125v26.125c.011718 1.25.300781 2.484376.851562 3.605469l-34.246094 34.253907c-3.316406 3.324218-7.488281 5.667968-12.054687 6.773437l-44.632813 10.835937-1.9375-11.636718 16.148438-16.148438 16.695312-2.390625c17.191407-2.402343 31.191407-15.027343 35.355469-31.878906l6.5-26.003906c1.140625-4.574219-1.640625-9.203125-6.214843-10.34375-1.355469-.335938-2.777344-.335938-4.132813.003906l-25.996094 6.5c-16.847656 4.167969-29.472656 18.164063-31.878906 35.355469l-2.382813 16.683594-5.921874 5.921874v-13.53125c.007812-.574218-.050782-1.144531-.167969-1.707031l-17.0625-85.3125c-.9375-4.617187-5.441407-7.597656-10.058594-6.660156-3.359375.679687-5.980469 3.304687-6.664063 6.660156l-7.335937 36.6875-10.09375-12.628906.195313-14.007813c.285156-17.355468-10.015626-33.140624-26.019532-39.867187l-24.671875-10.460937c-4.335937-1.839844-9.347656.179687-11.1875 4.519531-.550781 1.292969-.773437 2.699219-.644531 4.097656l2.394531 26.695313c1.503907 17.292968 13.375 31.933593 29.980469 36.984374l18.84375 5.765626c.09375.019531.183594.035156.273438.042968l16.5625 20.707032-5.359376 26.777343c-.117187.5625-.175781 1.132813-.171874 1.707031v24.886719l-3.566407 21.328125-47.542969-18c-2.773437-1.046875-5.34375-2.570312-7.59375-4.496094l-35.242187-30.175781c0-.179687.101563-.332031.101563-.511719v-27.15625c0-4.710937-3.820313-8.53125-8.53125-8.53125-4.710938 0-8.53125 3.820313-8.53125 8.53125v13.191407l-2.292969-1.964844c-8.953125-8.921875-23.339844-9.226563-32.660157-.691406-4.636718 4.25-7.3125 10.222656-7.394531 16.507812-.140625 6.832031 2.507813 13.421875 7.335938 18.257813l10.824219 10.828125-12.796876 2.703125c-4.613281.960937-7.574218 5.480468-6.613281 10.089844.828125 3.96875 4.328125 6.804687 8.378907 6.792968.601562 0 1.199218-.058594 1.785156-.179687l23.621094-5.015625 33.402343 33.410156c3.480469 3.53125 7.582031 6.390625 12.097657 8.4375l49.371093 28.050781-6.253906 131.996094c-1.183594 25.453125-11.832031 49.542969-29.859375 67.550781l-9.820312 9.820313h-5.605469c.195312-.445313.347656-.90625.453125-1.382813.5625-2.945312-.460938-5.96875-2.695313-7.96875l-19.980469-17.847656c-12.914062-11.574219-31.5625-14.148438-47.128906-6.5l-17.742187 8.660156c-4.234375 2.066406-5.996094 7.171875-3.929688 11.40625.359375.734375.820313 1.410156 1.367188 2.011719l13.277343 14.5625c.460938.503906 1.023438.855469 1.5 1.339844-.8125 1.273437-1.261718 2.742187-1.296874 4.25 0 4.710937 3.820312 8.53125 8.53125 8.53125h341.253906c4.710937 0 8.53125-3.820313 8.53125-8.53125 0-4.710938-3.820313-8.53125-8.53125-8.53125zm-119.839844-322.324219c1.449219-10.328125 9.039062-18.734375 19.167969-21.222656l12.210937-3.046875-3.054687 12.207031c-2.496094 10.113281-10.894531 17.683594-21.210938 19.128906l-8.25 1.183594zm-93.5625-62.207031-7.96875-2.441407c-9.960938-3.03125-17.078125-11.8125-17.984375-22.179687l-1.125-12.535156 11.585937 4.90625c9.59375 4.039062 15.773438 13.503906 15.609376 23.914062zm-96.226562 382.824219c-9.773438 3.613281-20.761719.910156-27.742188-6.824219l-5.625-6.160157 7.492188-3.660156c9.34375-4.605468 20.550781-3.058594 28.296874 3.90625l9.386719 8.371094zm185.191406 1.707031-5-5c-10.019532-9.964844-15.636719-23.523438-15.597656-37.65625 0-4.710938-3.816407-8.53125-8.53125-8.53125-4.710938 0-8.53125 3.820312-8.53125 8.53125-.019532 15.429687 5.082031 30.433593 14.503906 42.65625h-46.066406c9.417968-12.222657 14.519531-27.226563 14.5-42.65625 0-4.710938-3.816407-8.53125-8.53125-8.53125-4.710938 0-8.53125 3.820312-8.53125 8.53125.042968 14.132812-5.574219 27.691406-15.59375 37.65625l-5 5h-27.113282c19.742188-20.769531 31.335938-47.957031 32.667969-76.578125l6.507813-137.226563c.160156-3.199219-1.488282-6.214843-4.265626-7.8125l-54.683593-31.011719c-2.863281-1.277343-5.464844-3.070312-7.679688-5.289062l-58.695312-58.59375c-1.527344-1.542969-2.367188-3.632812-2.335938-5.800781 0-1.613281.664063-3.15625 1.832031-4.265625 2.824219-2.460938 7.105469-2.1875 9.589844.613281l54.976563 47.109375c3.75 3.207031 8.027343 5.742188 12.644531 7.492188l57.269531 21.675781c2.390625.894531 5.058594.675781 7.277344-.585938 2.207031-1.273437 3.730469-3.460937 4.152344-5.972656l5.394531-32.328125c.085938-.492188.128906-.992188.117188-1.492188v-24.738281l8.53125-42.65625 8.53125 42.65625v24.738281c0 .46875.039062.9375.121093 1.398438l5.390625 32.328125c.382813 2.339844 1.730469 4.414063 3.710938 5.714844 1.984375 1.296875 4.410156 1.722656 6.714844 1.175781l53.550781-13.007812c7.609375-1.839844 14.5625-5.746094 20.09375-11.289063l52.355469-52.339844c1.878906-2.027343 4.773437-2.765625 7.394531-1.882812 2.097656.816406 3.628906 2.652343 4.054687 4.863281.414063 2.324219-.40625 4.699219-2.167968 6.277344l-57.652344 65.375c-3.195313 3.5625-7.289063 6.199218-11.851563 7.628906l-50.941406 21.777344c-3.273437 1.402344-5.335937 4.6875-5.167969 8.242187l6.5 137.226563c1.332032 28.621094 12.929688 55.808594 32.664063 76.578125zm0 0"/><path d="m238.992188 298.605469c-4.710938 0-8.53125 3.816406-8.53125 8.53125v17.0625c0 4.710937 3.820312 8.53125 8.53125 8.53125 4.714843 0 8.53125-3.820313 8.53125-8.53125v-17.0625c0-4.714844-3.816407-8.53125-8.53125-8.53125zm0 0"/><path d="m273.117188 264.480469c-4.710938 0-8.53125 3.816406-8.53125 8.53125v17.0625c0 4.710937 3.820312 8.53125 8.53125 8.53125 4.714843 0 8.53125-3.820313 8.53125-8.53125v-17.0625c0-4.714844-3.816407-8.53125-8.53125-8.53125zm0 0"/><path d="m273.117188 332.730469c-4.710938 0-8.53125 3.820312-8.53125 8.53125v8.53125c0 4.710937 3.820312 8.53125 8.53125 8.53125 4.714843 0 8.53125-3.820313 8.53125-8.53125v-8.53125c0-4.710938-3.816407-8.53125-8.53125-8.53125zm0 0"/><path d="m238.992188 238.882812c-4.710938 0-8.53125 3.820313-8.53125 8.53125v8.53125c0 4.714844 3.820312 8.53125 8.53125 8.53125 4.714843 0 8.53125-3.816406 8.53125-8.53125v-8.53125c0-4.710937-3.816407-8.53125-8.53125-8.53125zm0 0"/></svg>