<svg height="511pt" viewBox="-59 0 511 511.99978" width="511pt" xmlns="http://www.w3.org/2000/svg"><path d="m222.339844 121.210938v-16.550782c27.167968-14.136718 37.734375-47.621094 23.597656-74.789062-14.132812-27.167969-47.617188-37.734375-74.789062-23.601563-27.167969 14.136719-37.734376 47.621094-23.597657 74.789063 5.253907 10.105468 13.496094 18.34375 23.597657 23.601562v16.550782c-107.441407 14.136718-183.085938 112.695312-168.949219 220.140624 14.132812 107.441407 112.695312 183.085938 220.140625 168.949219 107.441406-14.136719 183.085937-112.695312 168.949218-220.140625-11.585937-88.0625-80.886718-157.363281-168.949218-168.949218zm-63.988282-65.691407c0-21.203125 17.191407-38.390625 38.390626-38.390625 21.203124 0 38.394531 17.1875 38.394531 38.390625s-17.191407 38.390625-38.394531 38.390625c-21.191407-.023437-38.367188-17.199218-38.390626-38.390625zm46.921876 54.726563v9.257812h-17.0625v-9.257812c5.648437.96875 11.417968.96875 17.0625 0zm-8.53125 384.640625c-98.945313 0-179.15625-80.214844-179.15625-179.160157 0-98.945312 80.210937-179.160156 179.15625-179.160156 98.949218 0 179.160156 80.214844 179.160156 179.160156-.113282 98.898438-80.257813 179.046876-179.160156 179.160157zm0 0"/><path d="m196.742188 153.628906c-89.523438 0-162.09375 72.574219-162.09375 162.097656 0 89.523438 72.570312 162.097657 162.09375 162.097657 89.523437 0 162.097656-72.574219 162.097656-162.097657-.097656-89.484374-72.613282-162-162.097656-162.097656zm0 307.128906c-80.097657 0-145.03125-64.933593-145.03125-145.03125 0-80.101562 64.933593-145.035156 145.03125-145.035156 80.101562 0 145.035156 64.933594 145.035156 145.035156-.089844 80.0625-64.972656 144.945313-145.035156 145.03125zm0 0"/><path d="m196.742188 221.878906c4.714843 0 8.53125-3.816406 8.53125-8.53125v-17.0625c0-4.710937-3.816407-8.53125-8.53125-8.53125-4.710938 0-8.53125 3.820313-8.53125 8.53125v17.0625c0 4.714844 3.820312 8.53125 8.53125 8.53125zm0 0"/><path d="m196.742188 409.570312c-4.710938 0-8.53125 3.820313-8.53125 8.53125v17.0625c0 4.714844 3.820312 8.53125 8.53125 8.53125 4.714843 0 8.53125-3.820312 8.53125-8.53125v-17.0625c0-4.710937-3.816407-8.53125-8.53125-8.53125zm0 0"/><path d="m290.589844 315.726562c0 4.710938 3.820312 8.53125 8.53125 8.53125h17.0625c4.710937 0 8.53125-3.820312 8.53125-8.53125 0-4.710937-3.820313-8.53125-8.53125-8.53125h-17.0625c-4.710938 0-8.53125 3.820313-8.53125 8.53125zm0 0"/><path d="m94.367188 307.195312h-17.0625c-4.710938 0-8.53125 3.820313-8.53125 8.53125 0 4.710938 3.820312 8.53125 8.53125 8.53125h17.0625c4.710937 0 8.53125-3.820312 8.53125-8.53125 0-4.710937-3.820313-8.53125-8.53125-8.53125zm0 0"/><path d="m219.105469 293.75c-.042969-.070312-.121094-.101562-.164063-.171875-.40625-.546875-.875-1.042969-1.398437-1.476563-.386719-.449218-.820313-.859374-1.289063-1.226562-.074218-.042969-.109375-.128906-.1875-.179688l-82.820312-48.6875c-4.054688-2.402343-9.289063-1.0625-11.6875 2.992188-1.589844 2.679688-1.589844 6.011719 0 8.695312l48.738281 82.8125c0 .070313.109375.09375.152344.164063.40625.546875.878906 1.042969 1.410156 1.472656.378906.457031.8125.871094 1.285156 1.230469.078125.050781.113281.136719.191407.179688l82.777343 48.6875c4.0625 2.390624 9.289063 1.035156 11.679688-3.027344 1.570312-2.667969 1.570312-5.980469 0-8.652344zm-66.171875-20.367188 44.980468 26.449219-18.53125 18.53125zm38.519531 57.050782 18.53125-18.53125 26.445313 44.960937zm0 0"/><path d="m222.339844 55.519531c0-14.136719-11.460938-25.59375-25.597656-25.59375-14.132813 0-25.59375 11.457031-25.59375 25.59375 0 14.132813 11.460937 25.59375 25.59375 25.59375 14.136718 0 25.597656-11.460937 25.597656-25.59375zm-34.128906 0c0-4.710937 3.820312-8.53125 8.53125-8.53125 4.714843 0 8.53125 3.820313 8.53125 8.53125 0 4.710938-3.816407 8.53125-8.53125 8.53125-4.710938 0-8.53125-3.820312-8.53125-8.53125zm0 0"/></svg>