<svg height="512pt" viewBox="0 -3 512.00033 512" width="512pt" xmlns="http://www.w3.org/2000/svg"><path d="m461.804688 100.394531c0-27.722656-22.476563-50.199219-50.199219-50.199219-27.722657 0-50.195313 22.476563-50.195313 50.199219 0 27.722657 22.472656 50.195313 50.195313 50.195313 27.710937-.03125 50.164062-22.484375 50.199219-50.195313zm-80.316407 0c0-16.632812 13.484375-30.117187 30.117188-30.117187 16.632812 0 30.117187 13.484375 30.117187 30.117187 0 16.632813-13.484375 30.117188-30.117187 30.117188-16.632813 0-30.117188-13.484375-30.117188-30.117188zm0 0"/><path d="m126.9375 390.070312 3.011719-2.066406c4.566406-3.148437 5.714843-9.398437 2.566406-13.964844-.84375-1.222656-1.949219-2.246093-3.238281-2.992187-28.410156-16.417969-64.75-6.699219-81.171875 21.710937-16.417969 28.410157-6.699219 64.75 21.710937 81.171876 5.832032 3.367187 12.191406 5.722656 18.8125 6.960937 3.640625.660156 7.339844.996094 11.042969 1.003906 10.394531.011719 20.609375-2.734375 29.59375-7.960937 4.800781-2.78125 6.4375-8.921875 3.660156-13.71875-.742187-1.277344-1.753906-2.378906-2.964843-3.21875l-3.011719-2.089844c-17.90625-12.40625-22.367188-36.980469-9.957031-54.886719 2.695312-3.890625 6.066406-7.261719 9.957031-9.957031zm-34.765625 71.082032c-16.648437-3.292969-29.359375-16.804688-31.636719-33.625-2.765625-21.550782 12.464844-41.265625 34.015625-44.03125 1.65625-.214844 3.328125-.320313 5-.320313 1.636719-.003906 3.273438.101563 4.898438.308594-19.429688 22.386719-19.429688 55.65625 0 78.039063-4.089844.484374-8.226563.359374-12.277344-.371094zm0 0"/><path d="m278.082031 47.40625c9.488281 1.246094 18.878907 3.132812 28.109375 5.652344.867188.242187 1.761719.363281 2.660156.359375 5.546876.011719 10.046876-4.476563 10.058594-10.019531.007813-4.539063-3.027344-8.515626-7.40625-9.707032-10.128906-2.757812-20.433594-4.832031-30.84375-6.203125-5.5-.722656-10.542968 3.152344-11.261718 8.652344-.722657 5.5 3.152343 10.542969 8.652343 11.265625zm0 0"/><path d="m189.945312 53.980469c.933594.003906 1.863282-.125 2.761719-.378907 9.222657-2.625 18.613281-4.613281 28.109375-5.953124 5.492188-.78125 9.3125-5.863282 8.535156-11.355469-.78125-5.492188-5.863281-9.3125-11.355468-8.535157-10.394532 1.472657-20.675782 3.652344-30.773438 6.527344-5.332031 1.511719-8.429687 7.066406-6.914062 12.398438 1.226562 4.320312 5.167968 7.296875 9.65625 7.296875zm0 0"/><path d="m143.554688 62.867188c-2.902344-4.722657-9.082032-6.203126-13.804688-3.304688-8.941406 5.496094-17.496094 11.589844-25.613281 18.242188-4.296875 3.515624-4.929688 9.851562-1.414063 14.148437s9.847656 4.929687 14.144532 1.414063c7.417968-6.074219 15.238281-11.644532 23.402343-16.664063 4.726563-2.90625 6.203125-9.085937 3.296875-13.8125-.003906-.007813-.007812-.015625-.011718-.023437zm0 0"/><path d="m49.453125 164.246094c4.929687 2.539062 10.984375.601562 13.523437-4.328125 4.394532-8.523438 9.359376-16.738281 14.867188-24.585938 3.316406-4.445312 2.402344-10.734375-2.042969-14.050781-4.441406-3.316406-10.734375-2.402344-14.050781 2.042969-.113281.152343-.222656.3125-.328125.472656-6.023437 8.597656-11.453125 17.59375-16.253906 26.925781-2.546875 4.917969-.628907 10.96875 4.285156 13.523438zm0 0"/><path d="m24.597656 325.21875c1.238282 5.402344 6.625 8.777344 12.027344 7.539062 5.300781-1.21875 8.671875-6.433593 7.597656-11.765624-2.003906-9.367188-3.363281-18.859376-4.074218-28.414063-.117188-1.039063-.390626-2.054687-.816407-3.011719 15.777344-4.984375 24.527344-21.8125 19.542969-37.589844-2.742188-8.679687-9.285156-15.640624-17.773438-18.921874.710938-6.414063 1.605469-12.808594 2.878907-19.074219 1.109375-5.433594-2.394531-10.738281-7.828125-11.847657-5.433594-1.109374-10.738282 2.398438-11.847656 7.832032-1.507813 7.417968-2.53125 14.96875-3.3125 22.539062-15.765626 4.929688-24.550782 21.703125-19.621094 37.46875 2.921875 9.34375 10.230468 16.667969 19.570312 19.605469-.621094 1.421875-.898437 2.96875-.8125 4.515625.78125 10.464844 2.273438 20.863281 4.46875 31.125zm-4.53125-64.195312c.054688-4.707032 3.410156-8.730469 8.03125-9.625.457032.164062.921875.292968 1.398438.378906h.671875c.703125-.058594 1.394531-.191406 2.066406-.398438 4.585937.941406 7.886719 4.964844 7.914063 9.644532 0 5.546874-4.496094 10.039062-10.039063 10.039062-5.546875 0-10.042969-4.492188-10.042969-10.039062zm0 0"/><path d="m439.433594 409.105469c6.054687-8.585938 11.515625-17.582031 16.347656-26.914063 2.539062-4.929687.601562-10.984375-4.328125-13.523437-4.929687-2.539063-10.984375-.601563-13.523437 4.328125-4.410157 8.519531-9.398438 16.726562-14.929688 24.566406-3.171875 4.546875-2.058594 10.804688 2.488281 13.976562 4.53125 3.160157 10.761719 2.070313 13.949219-2.441406v.007813zm0 0"/><path d="m282.871094 505.144531c10.394531-1.46875 20.679687-3.644531 30.78125-6.515625 5.332031-1.519531 8.425781-7.074218 6.90625-12.410156-1.519532-5.332031-7.074219-8.425781-12.410156-6.90625-9.222657 2.625-18.613282 4.613281-28.109376 5.953125-5.476562.871094-9.207031 6.015625-8.335937 11.492187.847656 5.34375 5.777344 9.050782 11.148437 8.386719zm0 0"/><path d="m189.28125 499.210938c10.125 2.769531 20.425781 4.839843 30.832031 6.203124 5.496094.722657 10.539063-3.144531 11.265625-8.644531.722656-5.496093-3.148437-10.539062-8.644531-11.261719-9.488281-1.25-18.878906-3.140624-28.109375-5.664062-5.359375-1.429688-10.859375 1.757812-12.289062 7.113281-1.414063 5.308594 1.699218 10.769531 6.988281 12.253907zm0 0"/><path d="m371.097656 473.339844c8.941406-5.488282 17.496094-11.582032 25.609375-18.230469 4.292969-3.511719 4.925781-9.835937 1.414063-14.128906-1.910156-2.332031-4.765625-3.683594-7.777344-3.683594-2.320312-.003906-4.570312.800781-6.355469 2.28125-7.414062 6.074219-15.234375 11.636719-23.402343 16.652344-4.882813 2.628906-6.714844 8.714843-4.089844 13.597656s8.714844 6.714844 13.597656 4.089844c.347656-.1875.679688-.394531 1.003906-.617188zm0 0"/><path d="m501.960938 261.023438c-.042969-13.433594-9-25.210938-21.9375-28.839844-.816407-8.226563-2.078126-16.398438-3.773438-24.488282-1.242188-5.402343-6.625-8.777343-12.03125-7.539062-5.300781 1.21875-8.667969 6.433594-7.597656 11.765625 1.488281 7.085937 2.605468 14.242187 3.34375 21.445313-15.257813 6.511718-22.34375 24.160156-15.832032 39.417968 3.207032 7.511719 9.332032 13.390625 16.96875 16.289063-.160156.460937-.285156.929687-.371093 1.40625-.640625 9.570312-1.917969 19.085937-3.828125 28.480469-1.105469 5.4375 2.398437 10.738281 7.832031 11.847656s10.738281-2.394532 11.847656-7.828125c2.082031-10.269531 3.476563-20.667969 4.175781-31.125-.015624-.699219-.105468-1.394531-.269531-2.078125 12.71875-3.789063 21.449219-15.476563 21.472657-28.753906zm-30.117188 10.042968c-5.546875 0-10.039062-4.496094-10.039062-10.042968 0-5.542969 4.492187-10.039063 10.039062-10.039063 5.542969 0 10.039062 4.496094 10.039062 10.039063 0 5.546874-4.496093 10.042968-10.039062 10.042968zm0 0"/><path d="m421.644531 20.078125v-10.039063c0-5.542968-4.492187-10.039062-10.039062-10.039062-5.542969 0-10.039063 4.496094-10.039063 10.039062v10.039063c0 5.546875 4.496094 10.039063 10.039063 10.039063 5.546875 0 10.039062-4.492188 10.039062-10.039063zm0 0"/><path d="m340.617188 29.40625c-3.917969 3.917969-3.917969 10.273438 0 14.195312l7.097656 7.097657c3.851562 3.988281 10.207031 4.097656 14.195312.246093 3.988282-3.851562 4.101563-10.207031.246094-14.195312-.078125-.082031-.160156-.164062-.246094-.246094l-7.097656-7.097656c-3.921875-3.921875-10.273438-3.921875-14.195312 0zm0 0"/><path d="m331.289062 110.433594c5.546876 0 10.039063-4.496094 10.039063-10.039063s-4.492187-10.039062-10.039063-10.039062h-10.039062c-5.542969 0-10.039062 4.496093-10.039062 10.039062s4.496093 10.039063 10.039062 10.039063zm0 0"/><path d="m347.714844 174.324219c2.664062 0 5.214844-1.058594 7.097656-2.941407l7.097656-7.097656c3.988282-3.851562 4.097656-10.207031.246094-14.195312-3.851562-3.988282-10.207031-4.097656-14.195312-.246094-.082032.078125-.164063.164062-.246094.246094l-7.097656 7.097656c-3.921876 3.921875-3.917969 10.277344 0 14.199219 1.882812 1.878906 4.4375 2.9375 7.097656 2.9375zm0 0"/><path d="m411.605469 200.789062c5.546875 0 10.039062-4.496093 10.039062-10.039062v-10.039062c0-5.546876-4.492187-10.039063-10.039062-10.039063-5.542969 0-10.039063 4.492187-10.039063 10.039063v10.039062c0 5.542969 4.496094 10.039062 10.039063 10.039062zm0 0"/><path d="m461.300781 150.089844c-3.917969 3.921875-3.917969 10.273437 0 14.195312l7.097657 7.097656c3.988281 3.851563 10.34375 3.742188 14.195312-.246093 3.757812-3.890625 3.757812-10.058594 0-13.949219l-7.097656-7.097656c-3.917969-3.917969-10.273438-3.917969-14.195313 0zm0 0"/><path d="m512 100.394531c0-5.546875-4.496094-10.039062-10.039062-10.039062h-10.039063c-5.546875 0-10.039063 4.496093-10.039063 10.039062s4.496094 10.039063 10.039063 10.039063h10.039063c5.542968 0 10.039062-4.496094 10.039062-10.039063zm0 0"/><path d="m482.59375 29.40625c-3.917969-3.921875-10.273438-3.921875-14.195312 0l-7.097657 7.097656c-3.988281 3.851563-4.097656 10.207032-.246093 14.195313 3.851562 3.988281 10.207031 4.097656 14.195312.246093.082031-.082031.167969-.164062.246094-.246093l7.097656-7.097657c3.921875-3.921874 3.921875-10.277343 0-14.195312zm0 0"/></svg>