<svg height="511pt" viewBox="-68 0 511 511.99989" width="511pt" xmlns="http://www.w3.org/2000/svg"><path d="m290.644531 42.667969c-23.566406 0-42.667969 19.101562-42.667969 42.667969 0 23.5625 19.101563 42.667968 42.667969 42.667968 23.5625 0 42.667969-19.105468 42.667969-42.667968-.03125-23.554688-19.117188-42.640626-42.667969-42.667969zm0 68.269531c-14.140625 0-25.601562-11.464844-25.601562-25.601562 0-14.140626 11.460937-25.601563 25.601562-25.601563 14.136719 0 25.597657 11.460937 25.597657 25.601563 0 14.136718-11.460938 25.601562-25.597657 25.601562zm0 0"/><path d="m299.175781 17.066406v-8.53125c0-4.714844-3.820312-8.535156-8.53125-8.535156-4.714843 0-8.535156 3.820312-8.535156 8.535156v8.53125c0 4.714844 3.820313 8.535156 8.535156 8.535156 4.710938 0 8.53125-3.820312 8.53125-8.535156zm0 0"/><path d="m236.335938 43.09375c3.273437 3.390625 8.675781 3.484375 12.066406.210938 3.390625-3.273438 3.484375-8.675782.210937-12.066407-.070312-.070312-.140625-.140625-.210937-.210937l-6.035156-6.03125c-3.386719-3.277344-8.789063-3.183594-12.066407.207031-3.191406 3.308594-3.191406 8.550781 0 11.859375zm0 0"/><path d="m213.839844 76.800781c-4.710938 0-8.53125 3.820313-8.53125 8.535157 0 4.710937 3.820312 8.535156 8.53125 8.535156h8.535156c4.710938 0 8.53125-3.824219 8.53125-8.535156 0-4.714844-3.820312-8.535157-8.53125-8.535157zm0 0"/><path d="m236.335938 127.578125-6.035157 6.03125c-3.386719 3.273437-3.484375 8.675781-.207031 12.066406 3.273438 3.390625 8.675781 3.484375 12.066406.210938.070313-.070313.140625-.140625.207032-.210938l6.035156-6.03125c3.390625-3.277343 3.484375-8.675781.207031-12.066406-3.273437-3.390625-8.675781-3.484375-12.066406-.210937-.070313.070312-.140625.140624-.207031.210937zm0 0"/><path d="m290.644531 145.070312c-4.714843 0-8.535156 3.820313-8.535156 8.535157v8.53125c0 4.714843 3.820313 8.535156 8.535156 8.535156 4.710938 0 8.53125-3.820313 8.53125-8.535156v-8.53125c0-4.714844-3.820312-8.535157-8.53125-8.535157zm0 0"/><path d="m344.949219 127.578125c-3.273438-3.390625-8.675781-3.484375-12.066407-.210937-3.390624 3.273437-3.484374 8.675781-.207031 12.066406.066407.070312.136719.140625.207031.210937l6.035157 6.03125c3.390625 3.273438 8.792969 3.179688 12.066406-.207031 3.195313-3.308594 3.195313-8.550781 0-11.859375zm0 0"/><path d="m367.445312 76.800781h-8.535156c-4.710937 0-8.53125 3.820313-8.53125 8.535157 0 4.710937 3.820313 8.535156 8.53125 8.535156h8.535156c4.710938 0 8.53125-3.824219 8.53125-8.535156 0-4.714844-3.820312-8.535157-8.53125-8.535157zm0 0"/><path d="m344.949219 43.09375 6.035156-6.03125c3.390625-3.273438 3.484375-8.679688.207031-12.066406-3.273437-3.390625-8.675781-3.484375-12.066406-.210938-.070312.070313-.140625.140625-.207031.210938l-6.035157 6.03125c-3.390624 3.273437-3.484374 8.675781-.207031 12.066406 3.273438 3.390625 8.675781 3.484375 12.066407.210938.070312-.070313.140624-.140626.207031-.210938zm0 0"/><path d="m119.972656 110.9375c-51.378906.082031-96.964844 32.964844-113.25 81.691406-.132812.296875-.242187.601563-.332031.914063-12.378906 37.882812-4.980469 79.453125 19.710937 110.738281v28.527344c-.003906 14.140625 11.457032 25.605468 25.597657 25.605468 2.90625 0 5.796875-.492187 8.539062-1.464843v9.996093c.019531 8.046876 3.84375 15.613282 10.304688 20.410157l41.371093 118.925781c1.558594 4.449219 6.425782 6.792969 10.871094 5.238281 2.457032-.855469 4.382813-2.785156 5.242188-5.238281l48.691406-139.953125c11.714844-2.597656 20.050781-12.984375 20.054688-24.984375v-19.550781c50.519531-42.371094 57.125-117.671875 14.753906-168.191407-22.703125-27.066406-56.226563-42.691406-91.554688-42.664062zm45.449219 27.835938c7.960937 3.96875 15.375 8.953124 22.058594 14.832031h-16.308594c-4.710937-.003907-8.53125-3.828125-8.527344-8.542969.003907-2.390625 1.011719-4.675781 2.777344-6.289062zm-88.902344-.957032c13.453125 4.265625 20.90625 18.632813 16.640625 32.085938-3.371094 10.628906-13.242187 17.847656-24.390625 17.835937h-41.769531c10.128906-21.9375 27.660156-39.613281 49.519531-49.921875zm-55.539062 66.988282h30.722656c4.710937 0 8.535156 3.820312 8.535156 8.535156 0 4.710937-3.824219 8.53125-8.535156 8.53125h-33.699219c.503906-5.761719 1.5-11.472656 2.976563-17.066406zm69.328125 187.296874c12.203125-2.167968 21.105468-12.761718 21.128906-25.160156v-17.433594c11.644531.996094 23.375.132813 34.75-2.558593.824219 3.550781 2.40625 6.882812 4.632812 9.769531l-55.46875 49.949219zm29.664062 85.402344-7.433594-21.332031 21.332032-18.640625zm25.234375-72.535156-38.710937 33.800781-5.121094-14.625 54.078125-48.667969zm71.332031-140.429688h-28.300781c-4.710937 0-8.53125-3.820312-8.53125-8.53125 0-4.714843 3.820313-8.535156 8.53125-8.535156h32.558594c-.925781 5.800782-2.347656 11.511719-4.257813 17.066406zm5.835938-34.132812h-51.203125c-4.710937 0-8.53125-3.820312-8.53125-8.535156 0-4.710938 3.820313-8.53125 8.53125-8.53125h49.65625c.992187 5.636718 1.507813 11.34375 1.546875 17.066406zm-51.203125-34.132812c-14.105469-.027344-25.558594 11.386718-25.585937 25.496093-.019532 11.574219 7.75 21.71875 18.929687 24.714844-5.304687 13.054687.976563 27.9375 14.027344 33.246094 3.082031 1.25 6.375 1.886719 9.695312 1.878906h20.242188c-6.550781 11.332031-15.203125 21.308594-25.496094 29.398437-2.066406 1.613282-3.277344 4.089844-3.277344 6.714844v23.621094c0 4.710938-3.820312 8.53125-8.535156 8.53125-4.710937 0-8.53125-3.820312-8.53125-8.53125v-5.410156c-.003906-4.714844-3.824219-8.53125-8.539063-8.53125-.890624 0-1.777343.140625-2.625.414062-10.175781 3.304688-20.804687 4.988282-31.503906 4.992188-5.28125-.035156-10.550781-.488282-15.761718-1.347656-4.660157-.722657-9.019532 2.46875-9.738282 7.128906-.066406.429687-.101562.867187-.101562 1.300781v27.050781c0 4.714844-3.820313 8.535156-8.535156 8.535156-4.710938 0-8.53125-3.820312-8.53125-8.535156v-34.132812c0-4.710938-3.820313-8.53125-8.535157-8.53125-4.710937 0-8.53125 3.820312-8.53125 8.53125 0 4.714844-3.820312 8.535156-8.535156 8.535156-4.710937 0-8.53125-3.820312-8.53125-8.535156v-31.574219c0-1.996094-.699219-3.925781-1.972656-5.460937-13.378907-16.121094-21.496094-35.957032-23.253907-56.832032h33.757813c14.058594.078125 25.519531-11.253906 25.601563-25.3125.019531-3.253906-.585938-6.480468-1.785157-9.507812 23.21875-3.65625 39.074219-25.445313 35.414063-48.664063-1.511719-9.585937-6.257813-18.371093-13.449219-24.894531 17.039063-3.917969 34.804687-3.332031 51.542969 1.707031-7.066406 12.246094-2.871094 27.902344 9.371094 34.972657 3.886718 2.242187 8.289062 3.425781 12.773437 3.429687h31.804687c5.671876 7.851563 10.191407 16.472656 13.425782 25.601563zm0 0"/><path d="m102.902344 264.539062h-17.066406c-14.136719 0-25.601563 11.464844-25.601563 25.601563 0 14.140625 11.464844 25.601563 25.601563 25.601563h17.066406c14.140625 0 25.601562-11.460938 25.601562-25.601563 0-14.136719-11.460937-25.601563-25.601562-25.601563zm0 34.136719h-17.066406c-4.710938 0-8.53125-3.820312-8.53125-8.535156 0-4.710937 3.820312-8.53125 8.53125-8.53125h17.066406c4.714844 0 8.535156 3.820313 8.535156 8.53125 0 4.714844-3.820312 8.535156-8.535156 8.535156zm0 0"/></svg>