<svg height="512pt" viewBox="0 0 512.00011 512" width="512pt" xmlns="http://www.w3.org/2000/svg"><path d="m390.148438 19.972656 9.414062-2.566406c4.738281-1.144531 7.652344-5.910156 6.507812-10.648438-1.140624-4.738281-5.910156-7.652343-10.648437-6.507812-.164063.039062-.328125.082031-.492187.132812l-9.421876 2.566407c-56.605468 15.605469-104.902343 52.640625-134.65625 103.257812-6.761718.226563-13.5.914063-20.167968 2.054688 5.128906-32.988281 22.449218-62.851563 48.539062-83.679688 3.847656-2.996093 4.539063-8.539062 1.546875-12.386719-2.992187-3.84375-8.539062-4.539062-12.386719-1.542968-.0625.050781-.128906.101562-.191406.152344-30.183594 24.042968-50.019531 58.726562-55.429687 96.9375l-.699219 4.84375c-57.632812 17.742187-99.09375 68.195312-105.328125 128.175781-42.433594-27.742188-73.285156-70.023438-86.761719-118.902344l-2.566406-9.414063c-1.144531-4.738281-5.910156-7.652343-10.648438-6.507812-4.738281 1.144531-7.652343 5.910156-6.507812 10.648438.039062.164062.082031.328124.132812.492187l2.566407 9.425781c15.605469 56.601563 52.640625 104.898438 103.257812 134.65625.226563 6.757813.910157 13.496094 2.046875 20.164063-32.984375-5.136719-62.839844-22.457031-83.671875-48.539063-3.046875-3.804687-8.601562-4.421875-12.410156-1.375-3.804687 3.042969-4.421875 8.601563-1.375 12.40625 24.042969 30.1875 58.734375 50.019532 96.945313 55.433594l4.84375.6875c17.746093 57.632812 68.207031 99.089844 128.1875 105.320312-27.75 42.433594-70.03125 73.289063-118.910157 86.769532l-9.417969 2.566406c-4.738281 1.144531-7.652343 5.910156-6.507812 10.648438 1.144531 4.738281 5.910156 7.652343 10.648438 6.507812.164062-.039062.328124-.082031.492187-.132812l9.425781-2.566407c56.601563-15.605469 104.898438-52.640625 134.65625-103.257812 6.757813-.226563 13.496094-.914063 20.164063-2.054688-5.132813 32.988281-22.453125 62.847657-48.539063 83.679688-3.847656 2.996093-4.539062 8.539062-1.542968 12.386719 2.992187 3.847656 8.535156 4.539062 12.382812 1.542968.066406-.046875.128906-.101562.191406-.152344 30.183594-24.039062 50.015625-58.722656 55.433594-96.925781l.675781-4.835937c57.640625-17.75 99.105469-68.214844 105.332031-128.207032 42.441407 27.75 73.292969 70.035157 86.769532 118.921876l2.566406 9.414062c1.144531 4.738281 5.910156 7.652344 10.648438 6.507812 4.738281-1.140624 7.652343-5.910156 6.507812-10.648437-.039062-.164063-.082031-.328125-.132812-.492187l-2.566407-9.425782c-15.601562-56.601562-52.636719-104.902344-103.257812-134.652344-.226563-6.765624-.910157-13.503906-2.046875-20.175781 32.984375 5.136719 62.839844 22.457031 83.671875 48.539063 3.070312 3.789062 8.625 4.371094 12.414062 1.304687 3.753907-3.039062 4.367188-8.535156 1.371094-12.328125-24.035156-30.191406-58.722656-50.027344-96.933594-55.429687l-4.847656-.699219c-17.75-57.632812-68.210937-99.089844-128.195313-105.320312 27.75-42.441407 70.035157-73.292969 118.921876-86.769532zm-1.765626 236.03125c0 73.109375-59.269531 132.378906-132.378906 132.378906s-132.378906-59.269531-132.378906-132.378906 59.269531-132.378906 132.378906-132.378906 132.378906 59.269531 132.378906 132.378906zm0 0"/><path d="m256.003906 203.054688c-11.96875-.007813-23.582031 4.066406-32.925781 11.550781-11.546875-14.457031-13.109375-34.496094-3.945313-50.566407l.433594-.753906c2.277344-4.066406.824219-9.214844-3.242187-11.492187-.097657-.054688-.191407-.105469-.289063-.15625-4.398437-2.296875-9.824218-.683594-12.25 3.644531-13.222656 23.277344-10.210937 52.378906 7.492188 72.457031-12.113282 19-10.785156 43.605469 3.300781 61.191407-14.453125 11.550781-34.488281 13.113281-50.558594 3.945312l-.75-.429688c-4.070312-2.28125-9.21875-.828124-11.496093 3.242188-.054688.09375-.105469.191406-.152344.285156-2.300782 4.398438-.683594 9.828125 3.644531 12.25 23.273437 13.222656 52.375 10.214844 72.453125-7.492187 19 12.117187 43.605469 10.785156 61.1875-3.308594 11.550781 14.449219 13.117188 34.488281 3.953125 50.558594l-.433594.761719c-2.277343 4.066406-.828125 9.214843 3.242188 11.492187.09375.054687.191406.105469.289062.15625 4.398438 2.296875 9.828125.675781 12.25-3.65625 13.230469-23.269531 10.21875-52.378906-7.503906-72.445313 12.113281-18.996093 10.789063-43.601562-3.300781-61.183593 14.449218-11.558594 34.492187-13.125 50.5625-3.953125l.757812.429687c4.070313 2.28125 9.214844.828125 11.496094-3.242187.050781-.09375.101562-.191406.152344-.285156 2.300781-4.398438.683594-9.824219-3.644532-12.25-23.273437-13.238282-52.386718-10.222657-72.453124 7.5-8.445313-5.386719-18.253907-8.25-28.269532-8.25zm0 88.25c-19.496094 0-35.300781-15.804688-35.300781-35.300782s15.804687-35.300781 35.300781-35.300781 35.300782 15.804687 35.300782 35.300781-15.804688 35.300782-35.300782 35.300782zm0 0"/><path d="m334.671875 241.882812c-4.863281.320313-8.546875 4.523438-8.226563 9.386719 0 .003907 0 .003907.003907.003907.527343 7.898437-.269531 15.824218-2.359375 23.457031-1.289063 4.703125 1.476562 9.558593 6.175781 10.847656h.003906c.765625.214844 1.558594.324219 2.355469.324219 3.96875-.003906 7.445312-2.65625 8.5-6.484375.859375-3.167969 1.554688-6.378907 2.074219-9.621094 1.015625-6.511719 1.308593-13.117187.882812-19.695313-.296875-4.835937-4.453125-8.519531-9.289062-8.226562-.039063.003906-.082031.007812-.121094.007812zm0 0"/><path d="m241.882812 177.320312c.289063 4.835938 4.445313 8.519532 9.28125 8.230469.035157 0 .074219-.003906.109376-.007812 7.90625-.523438 15.84375.28125 23.484374 2.375 4.703126 1.28125 9.554688-1.492188 10.835938-6.195313s-1.492188-9.554687-6.195312-10.835937c-9.535157-2.601563-19.4375-3.597657-29.296876-2.949219-4.859374.324219-8.535156 4.523438-8.21875 9.382812zm0 0"/><path d="m176.726562 270.179688h.59375c4.863282-.324219 8.542969-4.523438 8.222657-9.390626-.351563-5.273437-.113281-10.570312.714843-15.789062.417969-2.589844.96875-5.15625 1.652344-7.6875 1.28125-4.703125-1.492187-9.554688-6.195312-10.835938s-9.554688 1.492188-10.839844 6.195313c-2.589844 9.53125-3.585938 19.425781-2.945312 29.28125.316406 4.628906 4.160156 8.222656 8.796874 8.226563zm0 0"/><path d="m260.769531 326.457031c-7.90625.507813-15.839843-.292969-23.484375-2.375-4.703125-1.28125-9.550781 1.496094-10.832031 6.199219-1.277344 4.703125 1.496094 9.554688 6.199219 10.832031 7.644531 2.089844 15.535156 3.144531 23.457031 3.144531 1.941406 0 3.894531-.0625 5.835937-.1875 4.871094-.324218 8.5625-4.539062 8.238282-9.410156-.324219-4.875-4.539063-8.5625-9.414063-8.238281zm0 0"/></svg>