<svg height="511pt" viewBox="-3 0 511 511.99971" width="511pt" xmlns="http://www.w3.org/2000/svg"><path d="m454.0625 189.949219v-19.300781c-.039062-47.132813-38.277344-85.304688-85.410156-85.265626-36.835938.03125-69.496094 23.695313-80.996094 58.691407-40.609375-18.867188-88.820312-1.238281-107.683594 39.367187-.808594 1.742188-1.558594 3.515625-2.242187 5.316406-13.960938 2.363282-26.828125 9.042969-36.796875 19.097657-46.484375-36.003907-54.984375-102.871094-18.980469-149.355469 14.164063-18.285156 33.894531-31.460938 56.210937-37.535156 4.546876-1.242188 7.230469-5.933594 5.988282-10.480469-.8125-2.976563-3.171875-5.285156-6.167969-6.03125-76.136719-19.429687-153.605469 26.542969-173.035156 102.679687-19.425781 76.136719 26.546875 153.609376 102.683593 173.035157 6.4375 1.644531 12.980469 2.832031 19.585938 3.5625 10.960938 24.605469 35.359375 40.476562 62.296875 40.527343h73.5l-30.386719 91.171876c-1.488281 4.472656.925782 9.304687 5.398438 10.792968.867187.289063 1.777344.4375 2.691406.4375h40.789062l-15.015624 75.097656c-.757813 3.863282 1.222656 7.738282 4.792968 9.386719 1.113282.546875 2.332032.839844 3.570313.855469 2.617187 0 5.089843-1.203125 6.707031-3.261719l93.871094-119.472656c2.914062-3.703125 2.269531-9.070313-1.4375-11.980469-1.5-1.183594-3.359375-1.824218-5.269532-1.828125h-44.335937l31.996094-51.203125h80.609375c37.703125-.140625 68.152344-30.824218 68.011718-68.527344-.117187-30.933593-21.023437-57.925781-50.945312-65.777343zm-332.816406 66.035156c.023437 3.3125.289062 6.617187.800781 9.890625-68.222656-11.632812-114.09375-76.371094-102.460937-144.59375 10.273437-60.230469 62.488281-104.273438 123.589843-104.242188h.675781c-58.890624 34.335938-78.796874 109.910157-44.460937 168.804688 8.003906 13.730469 18.585937 25.785156 31.164063 35.503906-6.128907 10.511719-9.34375 22.46875-9.308594 34.636719zm180.507812 123.484375c-2.5 3.996094-1.285156 9.261719 2.710938 11.761719 1.359375.847656 2.925781 1.296875 4.523437 1.296875h42.175781l-60.949218 77.554687 10.070312-50.246093c.941406-4.621094-2.039062-9.125-6.65625-10.070313-.5625-.113281-1.132812-.171875-1.707031-.171875h-39.359375l28.445312-85.335938h55.289063zm135.242188-72.28125h-247.480469c-28.277344-.164062-51.070313-23.222656-50.902344-51.5.152344-26.253906 20.136719-48.136719 46.269531-50.667969 3.460938-.3125 6.390626-2.695312 7.398438-6.023437 10.234375-33.792969 45.929688-52.890625 79.722656-42.65625 5.839844 1.769531 11.398438 4.367187 16.503906 7.710937 3.941407 2.585938 9.230469 1.488281 11.816407-2.449219.632812-.960937 1.0625-2.042968 1.265625-3.175781 6.847656-37.078125 42.453125-61.585937 79.53125-54.738281 32.3125 5.964844 55.789062 34.101562 55.875 66.960938v26.273437c0 4.242187 3.113281 7.84375 7.3125 8.449219 27.957031 4.269531 47.15625 30.394531 42.886718 58.347656-3.796874 24.847656-25.066406 43.265625-50.199218 43.46875zm0 0"/><path d="m424.648438 374.605469c4.214843 2.109375 9.339843.398437 11.449218-3.816407 0-.003906 0-.003906.003906-.007812l8.53125-17.066406c2.109376-4.21875.394532-9.347656-3.820312-11.453125-4.21875-2.105469-9.347656-.394531-11.453125 3.824219l-8.535156 17.066406c-2.105469 4.214844-.398438 9.34375 3.816406 11.449218.003906 0 .003906.003907.007813.003907zm0 0"/><path d="m215.117188 375.457031c3.25.019531 6.226562-1.808593 7.679687-4.71875l8.535156-17.066406c2.105469-4.21875.394531-9.347656-3.824219-11.453125s-9.34375-.394531-11.453124 3.824219l-8.53125 17.066406c-2.109376 4.21875-.398438 9.34375 3.816406 11.449219 1.171875.585937 2.464844.894531 3.777344.898437zm0 0"/><path d="m415.210938 393.421875c-4.21875-2.105469-9.34375-.398437-11.449219 3.816406-.003907.003907-.003907.003907-.003907.007813l-8.535156 17.066406c-2.105468 4.21875-.394531 9.347656 3.824219 11.453125s9.34375.394531 11.453125-3.824219l8.53125-17.066406c2.109375-4.214844.402344-9.339844-3.816406-11.449219 0 0-.003906-.003906-.003906-.003906zm0 0"/><path d="m189.515625 426.660156c3.25.019532 6.226563-1.808594 7.679687-4.71875l8.535157-17.066406c2.105469-4.21875.394531-9.347656-3.824219-11.453125s-9.34375-.394531-11.453125 3.824219l-8.53125 17.066406c-2.109375 4.214844-.398437 9.34375 3.816406 11.449219 1.175781.585937 2.464844.894531 3.777344.898437zm0 0"/><path d="m377.257812 477.863281c3.25.019531 6.230469-1.808593 7.683594-4.71875l8.53125-17.066406c2.109375-4.21875.394532-9.347656-3.820312-11.453125-4.21875-2.105469-9.347656-.394531-11.453125 3.824219l-8.535157 17.066406c-2.105468 4.214844-.398437 9.34375 3.820313 11.449219 1.171875.585937 2.464844.894531 3.773437.898437zm0 0"/><path d="m492.011719 342.21875c-4.214844-2.105469-9.339844-.398438-11.445313 3.816406-.003906.003906-.003906.003906-.003906.007813l-8.535156 17.066406c-2.105469 4.21875-.394532 9.347656 3.824218 11.453125s9.34375.394531 11.453126-3.824219l8.53125-17.066406c2.109374-4.214844.398437-9.339844-3.816407-11.449219 0 0-.003906 0-.007812-.003906zm0 0"/><path d="m466.410156 393.421875c-4.214844-2.105469-9.339844-.398437-11.445312 3.816406-.003906.003907-.003906.003907-.003906.007813l-8.535157 17.066406c-2.105469 4.21875-.394531 9.347656 3.824219 11.453125s9.34375.394531 11.453125-3.824219l8.53125-17.066406c2.109375-4.214844.398437-9.339844-3.816406-11.449219 0 0-.003907-.003906-.007813-.003906zm0 0"/><path d="m424.648438 477.011719c4.214843 2.105469 9.339843.398437 11.449218-3.816407 0-.003906 0-.003906.003906-.007812l8.53125-17.066406c2.109376-4.21875.394532-9.347656-3.820312-11.453125-4.21875-2.105469-9.347656-.394531-11.453125 3.824219l-8.535156 17.066406c-2.105469 4.214844-.398438 9.339844 3.816406 11.449218.003906 0 .003906.003907.007813.003907zm0 0"/><path d="m160.097656 477.011719c4.21875 2.105469 9.34375.398437 11.449219-3.816407.003906-.003906.003906-.003906.003906-.007812l8.535157-17.066406c2.105468-4.21875.394531-9.347656-3.824219-11.453125s-9.34375-.394531-11.453125 3.824219l-8.53125 17.066406c-2.109375 4.214844-.398438 9.339844 3.816406 11.449218 0 0 .003906.003907.003906.003907zm0 0"/><path d="m160.097656 374.605469c4.21875 2.109375 9.34375.398437 11.449219-3.816407.003906-.003906.003906-.003906.003906-.007812l8.535157-17.066406c2.105468-4.21875.394531-9.347656-3.824219-11.453125s-9.34375-.394531-11.453125 3.824219l-8.53125 17.066406c-2.109375 4.214844-.398438 9.34375 3.816406 11.449218 0 0 .003906.003907.003906.003907zm0 0"/><path d="m138.3125 426.660156c3.25.019532 6.226562-1.808594 7.679688-4.71875l8.535156-17.066406c2.105468-4.21875.394531-9.347656-3.824219-11.453125s-9.34375-.394531-11.453125 3.824219l-8.53125 17.066406c-2.109375 4.214844-.398438 9.34375 3.816406 11.449219 1.175782.585937 2.464844.894531 3.777344.898437zm0 0"/><path d="m112.710938 477.863281c3.25.019531 6.226562-1.808593 7.679687-4.71875l8.535156-17.066406c2.105469-4.21875.394531-9.347656-3.824219-11.453125s-9.34375-.394531-11.453124 3.824219l-8.53125 17.066406c-2.109376 4.214844-.398438 9.34375 3.816406 11.449219 1.175781.585937 2.464844.894531 3.777344.898437zm0 0"/><path d="m163.914062 59.707031h17.066407v17.066407h-17.066407zm0 0"/><path d="m189.515625 93.84375h17.066406v17.066406h-17.066406zm0 0"/><path d="m146.847656 119.445312h17.066406v17.066407h-17.066406zm0 0"/></svg>