<svg height="511pt" viewBox="0 -63 511.99973 511" width="511pt" xmlns="http://www.w3.org/2000/svg"><path d="m502.269531 165.007812-35.960937 5.121094c-6.257813-12.605468-21.546875-17.753906-34.152344-11.496094-12.605469 6.257813-17.753906 21.550782-11.496094 34.15625.28125.5625.578125 1.113282.898438 1.652344l-87.84375 100.335938c-10.203125-4.144532-21.917969-1.175782-28.914063 7.332031l-91.511719-34.316406c0-.160157.050782-.304688.050782-.46875.203125-14.136719-11.089844-25.761719-25.226563-25.96875-14.136719-.203125-25.765625 11.089843-25.96875 25.226562-.035156 2.472657.285157 4.941407.957031 7.324219l-96.914062 66.628906c-11.285156-8.308594-27.164062-5.898437-35.472656 5.386719-1.515625 2.054687-2.707032 4.328125-3.542969 6.738281h-18.636719c-4.714844 0-8.535156 3.820313-8.535156 8.535156 0 4.710938 3.820312 8.53125 8.535156 8.53125h18.636719c4.734375 13.257813 19.320313 20.167969 32.578125 15.433594 12.480469-4.457031 19.460938-17.734375 16.0625-30.546875l96.914062-66.628906c10.792969 7.964844 25.933594 6.09375 34.460938-4.265625l91.511719 34.3125c0 .160156-.050781.308594-.050781.46875 0 14.140625 11.460937 25.601562 25.601562 25.601562s25.601562-11.460937 25.601562-25.601562c-.042968-4.371094-1.21875-8.660156-3.414062-12.441406l87.871094-100.320313c13.046875 5.261719 27.890625-1.046875 33.152344-14.089843.605468-1.496094 1.0625-3.042969 1.375-4.625l35.839843-5.121094c4.664063-.667969 7.90625-4.992188 7.238281-9.660156-.671874-4.664063-4.996093-7.90625-9.660156-7.234376zm-451.066406 204.71875c-4.714844 0-8.535156-3.820312-8.535156-8.53125 0-4.714843 3.820312-8.535156 8.535156-8.535156 4.710937 0 8.53125 3.820313 8.53125 8.535156 0 4.710938-3.820313 8.53125-8.53125 8.53125zm136.535156-93.867187c-4.710937 0-8.53125-3.820313-8.53125-8.535156 0-4.710938 3.820313-8.53125 8.53125-8.53125 4.714844 0 8.535157 3.820312 8.535157 8.53125 0 4.714843-3.820313 8.535156-8.535157 8.535156zm136.539063 51.199219c-4.714844 0-8.535156-3.820313-8.535156-8.53125 0-4.714844 3.820312-8.535156 8.535156-8.535156 4.710937 0 8.53125 3.820312 8.53125 8.535156 0 4.710937-3.820313 8.53125-8.53125 8.53125zm119.46875-136.535156c-4.714844 0-8.535156-3.820313-8.535156-8.535157 0-4.710937 3.824218-8.53125 8.535156-8.53125 4.710937 0 8.535156 3.820313 8.535156 8.53125 0 4.714844-3.820312 8.535157-8.535156 8.535157zm0 0"/><path d="m317.253906 267.324219c24.382813.011719 44.160156-19.746094 44.171875-44.132813.003907-6.292968-1.339843-12.515625-3.9375-18.246094l-.367187-.8125-32.070313-70.5625c-1.953125-4.289062-7.011719-6.183593-11.300781-4.226562-1.875.851562-3.375 2.351562-4.230469 4.226562l-32.425781 71.382813c-10.058594 22.21875-.199219 48.382813 22.019531 58.441406 5.699219 2.582031 11.882813 3.921875 18.140625 3.929688zm19.164063-24.984375c-10.570313 10.589844-27.726563 10.605468-38.316407.035156-6.871093-6.863281-9.546874-16.875-7.011718-26.25h52.316406c2.492188 9.351562-.167969 19.324219-6.988281 26.195312zm-19.164063-84.6875 18.824219 41.402344h-37.648437zm0 0"/><path d="m445.257812 139.320312c24.378907.019532 44.15625-19.730468 44.175782-44.109374.003906-6.320313-1.347656-12.570313-3.964844-18.320313l-32.429688-71.394531c-1.953124-4.289063-7.015624-6.179688-11.304687-4.226563-1.871094.855469-3.371094 2.355469-4.226563 4.226563l-32.425781 71.382812c-10.097656 22.203125-.28125 48.386719 21.921875 58.480469 5.730469 2.609375 11.953125 3.957031 18.253906 3.960937zm-24.679687-55.375 24.679687-54.296874 24.675782 54.296874c6.199218 13.632813.175781 29.707032-13.453125 35.902344-13.632813 6.199219-29.703125.175782-35.902344-13.453125-3.242187-7.132812-3.242187-15.316406 0-22.449219zm0 0"/><path d="m5.582031 261.09375v.1875c.828125 24.34375 21.234375 43.40625 45.578125 42.574219 23.175782-.789063 41.78125-19.394531 42.574219-42.574219 0-.066406.039063-.117188.039063-.1875v-.058594c.246093-6.785156-1.082032-13.535156-3.882813-19.722656l-32.425781-71.390625c-1.953125-4.289063-7.015625-6.179687-11.304688-4.226563-1.871094.851563-3.371094 2.355469-4.226562 4.226563l-32.425782 71.382813c-2.808593 6.1875-4.140624 12.941406-3.894531 19.730468zm24.941407 17.664062c-2.570313-2.605468-4.582032-5.714843-5.914063-9.128906h50.171875c-1.332031 3.417969-3.347656 6.523438-5.921875 9.128906-10.597656 10.566407-27.742187 10.566407-38.335937 0zm19.167968-84.675781 24.679688 54.289063c.609375 1.351562 1.101562 2.753906 1.476562 4.191406h-52.3125c.371094-1.4375.867188-2.839844 1.476563-4.191406zm0 0"/><path d="m189.25 224.65625c24.378906.019531 44.15625-19.730469 44.175781-44.109375.003907-6.320313-1.347656-12.570313-3.964843-18.320313l-11.90625-26.199218-20.53125-45.167969c-1.953126-4.289063-7.015626-6.183594-11.304688-4.226563-1.871094.851563-3.375 2.351563-4.226562 4.226563l-20.550782 45.132813-11.945312 26.199218c-10.109375 22.195313-.3125 48.382813 21.882812 58.492188 5.769532 2.628906 12.035156 3.984375 18.371094 3.972656zm19.164062-24.984375c-10.59375 10.578125-27.757812 10.570313-38.339843-.023437-7.976563-7.988282-10.171875-20.085938-5.503907-30.367188l9.726563-21.425781h29.867187l9.738282 21.410156c4.644531 10.289063 2.460937 22.375-5.488282 30.386719zm-19.164062-84.6875 7.183594 15.804687h-14.378906zm0 0"/></svg>