<svg height="511pt" viewBox="1 -71 511.99958 511" width="511pt" xmlns="http://www.w3.org/2000/svg"><path d="m477.601562 286.582031c.839844-10.238281.992188-20.519531.453126-30.78125-3.320313-59.28125-29.929688-114.851562-74.039063-154.601562h24.074219c18.539062 0 33.566406-15.027344 33.566406-33.566407 0-18.539062-15.027344-33.566406-33.566406-33.566406h-6.292969c0-18.539062-15.03125-33.566406-33.566406-33.566406-18.539063 0-33.570313 15.027344-33.570313 33.566406-13.261718.101563-25.242187 7.949219-30.628906 20.074219-27.460938-9.214844-56.441406-13.050781-85.351562-11.296875-86.8125 5.324219-163.011719 59.640625-196.359376 139.96875-5.65625 9.597656-8.640624 20.535156-8.644531 31.675781v13.429688h-.058593c-22.707032 4.609375-37.382813 26.757812-32.769532 49.46875 3.976563 19.59375 21.226563 33.65625 41.222656 33.609375h142.65625c23.175782.015625 41.972657-18.757813 41.988282-41.929688.015625-20.230468-14.410156-37.589844-34.300782-41.285156-.242187-1.289062-.660156-2.515625-1.023437-3.765625 24.75-33.480469 71.949219-40.558594 105.429687-15.8125 25.808594 19.078125 36.707032 52.40625 27.160157 83.046875-20.253907 11.097656-27.675781 36.511719-16.578125 56.765625 7.355468 13.425781 21.460937 21.757813 36.769531 21.722656h125.875c23.152344.019531 41.933594-18.734375 41.953125-41.882812.015625-20.265625-14.464844-37.636719-34.398438-41.273438zm-122.941406-235.730469h8.394532c4.632812 0 8.390624-3.757812 8.390624-8.394531v-8.390625c0-9.269531 7.515626-16.785156 16.785157-16.785156s16.78125 7.515625 16.78125 16.785156v8.390625c0 4.636719 3.757812 8.394531 8.390625 8.394531h14.6875c9.269531 0 16.785156 7.511719 16.785156 16.78125 0 9.269532-7.515625 16.785157-16.785156 16.785157h-44.886719c-13.550781-9.695313-28.132813-17.855469-43.480469-24.335938 2.863282-5.628906 8.625-9.191406 14.9375-9.230469zm-115.042968 8.742188c115.671874-6.757812 214.917968 81.527344 221.679687 197.199219v.007812c.503906 9.671875.34375 19.367188-.480469 29.019531h-7.550781v-4.195312c-.003906-9.878906-3.199219-19.492188-9.105469-27.410156-8.097656-106.203125-100.757812-185.734375-206.964844-177.636719-54.765624 4.175781-105.15625 31.503906-138.523437 75.132813-.6875 0-1.359375-.160157-2.054687-.160157-7.089844.011719-14.125 1.234375-20.804688 3.609375 36.394531-55.988281 97.15625-91.4375 163.804688-95.566406zm136.183593 188.21875c-11.652343-68.449219-76.589843-114.496094-145.039062-102.84375-30.082031 5.121094-57.269531 21.003906-76.503907 44.6875-2.296874-5.414062-5.34375-10.480469-9.054687-15.042969 51.96875-58.988281 141.914063-64.675781 200.898437-12.710937 22.761719 20.054687 38.519532 46.851562 44.980469 76.488281-5.660156 2.109375-10.851562 5.3125-15.28125 9.421875zm31.78125-12.34375c-18.324219-85.933594-102.835937-140.742188-188.769531-122.417969-33.214844 7.082031-63.289062 24.601563-85.828125 50.003907-4.785156-3.359376-10.019531-6.027344-15.550781-7.929688 62.828125-74.253906 173.957031-83.515625 248.210937-20.6875 31.679688 26.804688 52.878907 63.9375 59.851563 104.847656-5.652344-2.464844-11.746094-3.765625-17.914063-3.816406zm-197.679687 33.566406c0 13.90625-11.269532 25.175782-25.175782 25.175782h-142.65625c-13.90625.023437-25.195312-11.226563-25.21875-25.132813-.023437-11.972656 8.394532-22.304687 20.125-24.707031 1.675782-.335938 3.382813-.507813 5.09375-.511719 4.632813 0 8.390626-3.753906 8.390626-8.390625v-20.980469c.09375-25.488281 20.835937-46.074219 46.328124-45.980469 21.300782.078126 39.78125 14.726563 44.722657 35.449219.917969 3.953125 4.53125 6.679688 8.585937 6.480469.359375-.007812.714844-.054688 1.0625-.144531 13.90625 0 25.175782 11.273437 25.175782 25.175781 0 4.636719 3.757812 8.390625 8.390624 8.390625 13.90625 0 25.175782 11.273437 25.175782 25.175781zm125.171875-39.945312c-22.050781-45.964844-77.1875-65.351563-123.152344-43.296875-11.144531 5.34375-21.101563 12.875-29.28125 22.144531-3.699219-4.273438-8.21875-7.753906-13.292969-10.238281 38.898438-45.761719 107.53125-51.324219 153.289063-12.421875 29.082031 24.722656 43.074219 62.878906 36.867187 100.542968h-15.332031c-.570313 0-1.097656.140626-1.679687.167969 3.695312-19.269531 1.09375-39.21875-7.417969-56.898437zm134.972656 123.863281h-125.875c-13.902344 0-25.175781-11.269531-25.175781-25.175781 0-13.902344 11.273437-25.175782 25.175781-25.175782h25.175781c4.636719 0 8.390625-3.753906 8.390625-8.390624v-12.585938c0-16.222656 13.152344-29.371094 29.371094-29.371094 16.222656 0 29.371094 13.148438 29.371094 29.371094v12.585938c0 4.636718 3.757812 8.390624 8.394531 8.390624h25.171875c13.90625 0 25.175781 11.273438 25.175781 25.175782 0 13.90625-11.269531 25.175781-25.175781 25.175781zm0 0"/></svg>