<svg height="512pt" viewBox="-13 0 512 512.01208" width="512pt" xmlns="http://www.w3.org/2000/svg"><path d="m348.859375 53.25c-12.277344-.003906-24.40625 2.683594-35.53125 7.871094-15.320313-46.609375-65.523437-71.976563-112.132813-56.65625-36.429687 11.972656-61.066406 45.972656-61.097656 84.320312v20.09375c-37.964844 9.960938-60.664062 48.8125-50.703125 86.777344 8.171875 31.148438 36.265625 52.910156 68.46875 53.03125h257.625c39.25-.0625 71.015625-31.929688 70.953125-71.179688-.054687-34.4375-24.792968-63.882812-58.703125-69.871093-12.324219-32.847657-43.796875-54.546875-78.878906-54.386719zm119.929687 124.371094c-.03125 29.421875-23.875 53.269531-53.300781 53.300781h-257.625c-29.433593-.242187-53.101562-24.300781-52.863281-53.734375.214844-26.164062 19.386719-48.304688 45.25-52.257812 4.375-.628907 7.617188-4.375 7.613281-8.792969v-27.351563c.179688-39.25 32.144531-70.925781 71.390625-70.746094 34.097656.15625 63.28125 24.503907 69.539063 58.023438.867187 4.828125 5.488281 8.039062 10.316406 7.171875 1.175781-.210937 2.300781-.660156 3.300781-1.316406 30.738282-20.15625 71.996094-11.578125 92.152344 19.160156 3.492188 5.324219 6.203125 11.121094 8.046875 17.214844 1.050781 3.464843 4.097656 5.949219 7.703125 6.273437 27.511719 2.351563 48.609375 25.4375 48.476562 53.054688zm0 0"/><path d="m46.820312 346.40625c0 19.625 15.910157 35.535156 35.535157 35.535156s35.535156-15.910156 35.535156-35.535156-15.910156-35.535156-35.535156-35.535156-35.535157 15.910156-35.535157 35.535156zm35.535157-17.765625c9.8125 0 17.765625 7.953125 17.765625 17.765625s-7.953125 17.765625-17.765625 17.765625-17.769531-7.953125-17.769531-17.765625 7.957031-17.765625 17.769531-17.765625zm0 0"/><path d="m.0078125 429.550781 44.4140625-53.296875 13.65625 11.378906-44.417969 53.300782zm0 0"/><path d="m103.632812 305.171875 29.609376-35.535156 13.65625 11.378906-29.609376 35.535156zm0 0"/><path d="m32.5625 485.789062 29.609375-35.535156 13.65625 11.378906-29.609375 35.535157zm0 0"/><path d="m201.355469 482.863281 29.617187-35.53125 13.65625 11.382813-29.617187 35.53125zm0 0"/><path d="m79.964844 429.558594 133.257812-159.902344 13.652344 11.378906-133.257812 159.902344zm0 0"/><path d="m248.738281 429.558594 133.277344-159.878906 13.652344 11.378906-133.277344 159.882812zm0 0"/><path d="m224.492188 417.476562c0-19.625-15.910157-35.535156-35.535157-35.535156s-35.535156 15.910156-35.535156 35.535156c0 19.621094 15.910156 35.53125 35.535156 35.53125s35.535157-15.90625 35.535157-35.53125zm-53.300782 0c0-9.8125 7.953125-17.769531 17.765625-17.769531s17.765625 7.957031 17.765625 17.769531-7.953125 17.765626-17.765625 17.765626-17.765625-7.953126-17.765625-17.765626zm0 0"/><path d="m106.597656 500.628906 44.425782-53.289062 13.652343 11.382812-44.421875 53.289063zm0 0"/><path d="m210.363281 376.132812 91.796875-106.605468 13.460938 11.589844-91.792969 106.609374zm0 0"/><path d="m464.347656 337.523438c0-19.625-15.910156-35.535157-35.535156-35.535157s-35.535156 15.910157-35.535156 35.535157 15.910156 35.535156 35.535156 35.535156 35.535156-15.910156 35.535156-35.535156zm-53.300781 0c0-9.8125 7.953125-17.765626 17.765625-17.765626s17.769531 7.953126 17.769531 17.765626-7.957031 17.765624-17.769531 17.765624-17.765625-7.953124-17.765625-17.765624zm0 0"/><path d="m317.769531 497.425781c19.625 0 35.53125-15.90625 35.53125-35.53125 0-19.628906-15.90625-35.535156-35.53125-35.535156s-35.535156 15.90625-35.535156 35.535156c0 19.625 15.910156 35.53125 35.535156 35.53125zm0-53.300781c9.8125 0 17.765625 7.953125 17.765625 17.769531 0 9.8125-7.953125 17.765625-17.765625 17.765625s-17.769531-7.953125-17.769531-17.765625c0-9.816406 7.957031-17.769531 17.769531-17.769531zm0 0"/><path d="m346.457031 420.683594 44.421875-53.289063 13.65625 11.378907-44.425781 53.292968zm0 0"/><path d="m449.945312 296.542969 20.722657-26.648438 14.023437 10.90625-20.722656 26.648438zm0 0"/></svg>