<svg height="512pt" viewBox="0 0 512 512.00031" width="512pt" xmlns="http://www.w3.org/2000/svg"><path d="m251.734375 223.351562-21.898437 12.644532c-2.640626 1.527344-4.265626 4.34375-4.265626 7.390625v25.300781c0 3.050781 1.625 5.867188 4.265626 7.390625l21.898437 12.648437c2.640625 1.523438 5.890625 1.523438 8.53125 0l21.90625-12.648437c2.640625-1.523437 4.265625-4.339844 4.265625-7.390625v-25.300781c0-3.046875-1.625-5.863281-4.265625-7.390625l-21.90625-12.644532c-2.640625-1.523437-5.890625-1.523437-8.53125 0zm17.59375 24.96875v15.4375l-13.328125 7.722657-13.363281-7.679688v-15.480469l13.363281-7.679687zm0 0"/><path d="m503.464844 247.464844h-27.304688l8.910156-14.25c2.496094-4.003906 1.273438-9.277344-2.730468-11.773438-4.007813-2.5-9.28125-1.277344-11.777344 2.730469l-14.488281 23.292969h-23.605469l18.5-29.609375c2.5-4.003907 1.277344-9.277344-2.730469-11.777344-4.003906-2.496094-9.277343-1.273437-11.777343 2.734375l-24.121094 38.652344h-20.925782l19.628907-29.394532c2.613281-3.921874 1.554687-9.222656-2.363281-11.835937-3.921876-2.617187-9.222657-1.558594-11.835938 2.363281l-25.941406 38.867188h-54.613282v-21.332032c0-3.046874-1.628906-5.863281-4.269531-7.390624l-4.222656-2.449219 35.507813-35.503907 45.816406 9.15625c.558594.109376 1.132812.167969 1.707031.167969 4.710937.03125 8.554687-3.769531 8.582031-8.480469.027344-4.09375-2.859375-7.628906-6.875-8.421874l-34.648437-6.929688 14.796875-14.796875 42.359375 9.796875c.632812.140625 1.273437.210938 1.921875.210938 4.710937-.011719 8.523437-3.839844 8.511718-8.554688-.011718-3.960938-2.742187-7.390625-6.601562-8.289062l-32.058594-7.40625 16.691406-16.691407 26.769532 6.1875c.628906.140625 1.273437.210938 1.917968.210938 4.714844.007812 8.539063-3.804688 8.550782-8.515625.003906-3.988282-2.75-7.449219-6.640625-8.335938l-16.363281-3.773437 19.273437-19.285157c3.46875-3.191406 3.691406-8.589843.5-12.058593-3.191406-3.464844-8.589844-3.691407-12.054687-.5-.175782.160156-.339844.328125-.5.5l-19.285157 19.277343-3.757812-16.375c-1.0625-4.59375-5.648438-7.457031-10.242188-6.394531s-7.457031 5.648438-6.394531 10.242188l6.175781 26.761719-16.714843 16.691406-7.808594-34.023438c-1.0625-4.589844-5.644532-7.453125-10.234375-6.394531-4.59375 1.058594-7.457031 5.644531-6.398438 10.234375l10.242188 44.425781-14.796875 14.796875-6.972656-34.652344c-.988282-4.609374-5.527344-7.542968-10.136719-6.550781-4.511719.96875-7.4375 5.355469-6.597657 9.894531l9.164063 45.808594-38.738281 38.738282-27.929688-16.125v-50.238282l38.867188-25.898437c3.925781-2.613281 4.984375-7.914063 2.367187-11.839844-2.613281-3.921875-7.914062-4.984375-11.839843-2.367187l-29.394532 19.601562v-20.925781l36.949219-23.097657c4.003906-2.5 5.226563-7.769531 2.730469-11.777343-2.5-4.003907-7.773438-5.226563-11.777344-2.730469l-27.902344 17.476562v-23.601562l23.292969-14.566406c4.007813-2.5 5.230469-7.773438 2.730469-11.777344-2.496094-4.007812-7.769532-5.230469-11.773438-2.730469l-14.25 8.976563v-27.304688c0-4.714844-3.824218-8.535156-8.535156-8.535156s-8.53125 3.820312-8.53125 8.535156v27.304688l-14.253906-8.941406c-4.003906-2.5-9.277344-1.277344-11.773438 2.730468-2.5 4.003906-1.277344 9.277344 2.730469 11.773438l23.296875 14.535156v23.601562l-29.613281-18.507812c-4.003907-2.5-9.277344-1.277344-11.773438 2.730469-2.5 4.003906-1.277343 9.277343 2.730469 11.773437l38.65625 24.132813v20.925781l-29.398438-19.628906c-3.925781-2.613282-9.226562-1.554688-11.839843 2.371094-2.617188 3.921874-1.554688 9.222656 2.367187 11.839843l38.871094 25.921875v50.238282l-27.941406 16.125-38.738282-38.738282 9.164063-45.84375c.855469-4.632812-2.203125-9.085937-6.839844-9.941406-4.539062-.84375-8.925781 2.082031-9.894531 6.597656l-6.929688 34.652344-14.804687-14.804688 9.796875-42.425781c1.058594-4.59375-1.808594-9.175781-6.402344-10.234375-4.589844-1.054687-9.171875 1.808594-10.230468 6.402344l-7.398438 32.058594-16.683594-16.691406 6.179688-26.757813c1.0625-4.597656-1.800782-9.183594-6.394532-10.246094-4.597656-1.0625-9.183593 1.800781-10.246093 6.394531l-3.78125 16.378907-19.285157-19.277344c-3.191406-3.46875-8.589843-3.691406-12.054687-.5-3.46875 3.191406-3.691406 8.589844-.5 12.054687.15625.175782.324219.34375.5.5l19.273437 19.289063-16.363281 3.769531c-4.597656 1.046875-7.472656 5.621094-6.425781 10.214844.886719 3.890625 4.347656 6.644531 8.335938 6.640625.644531 0 1.289062-.074219 1.917968-.214844l26.769532-6.1875 16.691406 16.691407-34.011719 7.824218c-4.597656 1.046875-7.472656 5.621094-6.425781 10.21875.886718 3.882813 4.34375 6.640625 8.328125 6.636719.648437 0 1.292969-.074219 1.929687-.214844l44.414063-10.238281 14.796875 14.796875-34.644532 6.925781c-4.625.914063-7.632812 5.402344-6.71875 10.027344.796876 4.015625 4.328126 6.902344 8.425782 6.878906.570312-.003906 1.144531-.058594 1.707031-.171875l45.804687-9.15625 35.507813 35.507813-4.265625 2.449218c-2.640625 1.523438-4.269531 4.339844-4.269531 7.390626v21.347656h-54.613281l-25.949219-38.867188c-2.613281-3.921875-7.914063-4.980468-11.835938-2.363281-3.917969 2.613281-4.976562 7.914063-2.363281 11.835937l19.585938 29.394532h-20.925782l-23.089844-36.949219c-2.5-4.003906-7.769531-5.226563-11.777343-2.730469-4.003907 2.5-5.226563 7.769532-2.730469 11.777344l17.46875 27.902344h-23.605469l-14.554687-23.292969c-2.5-4.007813-7.773438-5.230469-11.777344-2.730469-4.007812 2.496094-5.230469 7.769532-2.730469 11.773438l8.976563 14.25h-27.304688c-4.714844 0-8.535156 3.820312-8.535156 8.535156s3.820312 8.535156 8.535156 8.535156h27.304688l-8.941406 14.25c-2.5 4.003906-1.277344 9.277344 2.730468 11.773438 4.003906 2.5 9.277344 1.277344 11.773438-2.730469l14.523437-23.292969h23.605469l-18.5 29.609375c-2.5 4.003907-1.277344 9.277344 2.730469 11.777344 4.003906 2.496094 9.277343 1.273437 11.773437-2.734375l24.125-38.652344h20.925782l-19.628907 29.394532c-2.613281 3.921874-1.554687 9.222656 2.363281 11.835937 3.921876 2.617187 9.222657 1.558594 11.835938-2.363281l25.941406-38.867188h54.613282v21.332032c0 3.046874 1.628906 5.863281 4.269531 7.390624l4.265625 2.449219-35.507813 35.503907-45.859375-9.15625c-4.632812-.855469-9.085937 2.207031-9.941406 6.839843-.839844 4.539063 2.082031 8.925781 6.597656 9.894531l34.644532 6.929688-14.796876 14.796875-42.425781-9.796875c-4.59375-1.058594-9.175781 1.808594-10.234375 6.402344-1.058594 4.589844 1.808594 9.171875 6.402344 10.230468l32.058594 7.40625-16.691406 16.691407-26.769532-6.1875c-4.59375-1.058594-9.175781 1.808593-10.234375 6.40625-1.058593 4.59375 1.808594 9.175781 6.402344 10.234375l16.367187 3.773437-19.273437 19.285157c-3.46875 3.191406-3.691406 8.589843-.5 12.054687 3.191406 3.46875 8.589844 3.691406 12.054687.5.175782-.160156.339844-.324219.5-.5l19.277344-19.273437 3.78125 16.375c.898438 3.867187 4.339844 6.601562 8.3125 6.605468.648438 0 1.292969-.074218 1.925782-.214844 4.59375-1.058593 7.460937-5.636718 6.402343-10.230468 0-.003906 0-.007813 0-.007813l-6.179687-26.761719 16.691406-16.691406 7.851562 34.023438c.894532 3.867187 4.339844 6.609375 8.3125 6.613281.644532-.003906 1.289063-.078125 1.917969-.222656 4.59375-1.058594 7.460938-5.636719 6.402344-10.230469 0-.003906 0-.007812-.003906-.011719l-10.238281-44.421875 14.796874-14.796875 6.929688 34.652344c.808594 3.972656 4.300781 6.824219 8.351562 6.828125.574219.003906 1.148438-.054688 1.707032-.171875 4.574218-.933594 7.546875-5.371094 6.675781-9.957031l-9.167969-45.808594 38.742188-38.742188 27.9375 16.09375v50.238282l-38.867188 25.898437c-3.925781 2.613281-4.984375 7.914063-2.367187 11.839844 2.613281 3.921875 7.914062 4.984375 11.839843 2.367187l29.394532-19.601562v20.925781l-36.949219 23.097657c-4.003906 2.5-5.226563 7.769531-2.730469 11.777343 2.5 4.003907 7.769532 5.226563 11.777344 2.730469l27.902344-17.476562v23.601562l-23.292969 14.566406c-4.007813 2.5-5.230469 7.773438-2.730469 11.777344 2.496094 4.007812 7.769532 5.230469 11.773438 2.730469l14.25-8.976563v27.308594c0 4.710938 3.820312 8.53125 8.535156 8.53125 4.710938 0 8.53125-3.820312 8.53125-8.53125v-27.308594l14.253906 8.910156c4.003906 2.496094 9.277344 1.273438 11.773438-2.730468 2.5-4.007813 1.277344-9.28125-2.730469-11.777344l-23.296875-14.5v-23.601562l29.613281 18.507812c4.003907 2.5 9.277344 1.277344 11.773438-2.730469 2.5-4.003906 1.277343-9.277343-2.730469-11.773437l-38.65625-24.132813v-20.925781l29.398438 19.628906c3.925781 2.613282 9.226562 1.554688 11.839843-2.371094 2.617188-3.921874 1.554688-9.222656-2.367187-11.839843l-38.871094-25.921875v-50.238282l27.941406-16.125 38.738282 38.738282-9.164063 45.84375c-.921875 4.617187 2.074219 9.109375 6.691406 10.035156.5625.113281 1.132813.171875 1.707031.167969 4.050782 0 7.542969-2.855469 8.351563-6.824219l6.929687-34.65625 14.804688 14.808594-9.8125 42.390625c-1.0625 4.59375 1.796875 9.175781 6.390625 10.238281.003906 0 .007813.003906.007813.003906.632812.140625 1.277343.210938 1.921874.210938 3.972657 0 7.417969-2.742188 8.3125-6.613282l7.398438-32.058593 16.683594 16.691406-6.179688 26.761719c-1.0625 4.589844 1.796875 9.171875 6.390625 10.234375 0 .003906.003907.003906.007813.003906.632812.140625 1.28125.214844 1.929687.214844 3.96875 0 7.414063-2.738281 8.3125-6.605469l3.777344-16.375 19.285156 19.265625c3.46875 3.191406 8.867188 2.96875 12.058594-.496094 3.007813-3.269531 3.007813-8.292969 0-11.558593l-19.277344-19.285157 16.367188-3.773437c4.597656-1.058594 7.464843-5.640625 6.40625-10.234375-1.058594-4.597657-5.640625-7.464844-10.238281-6.40625l-26.765626 6.1875-16.691406-16.699219 34.011719-7.816406c4.59375-1.058594 7.460937-5.640625 6.40625-10.238282-1.058594-4.59375-5.640625-7.460937-10.238281-6.402343l-44.371094 10.238281-14.796875-14.796875 34.644531-6.925781c4.605469-.992188 7.539063-5.53125 6.550782-10.136719-.972657-4.515625-5.355469-7.4375-9.898438-6.597656l-45.804688 9.15625-35.507812-35.507813 4.222656-2.449218c2.640625-1.523438 4.269532-4.34375 4.269532-7.390626v-21.351562h54.613281l25.878906 38.871094c2.617187 3.921875 7.917969 4.980468 11.835937 2.363281 3.921876-2.617187 4.980469-7.914063 2.363282-11.835937l-19.582032-29.398438h20.921876l23.09375 36.949219c2.496093 4.007812 7.769531 5.230469 11.773437 2.730469 4.007813-2.496094 5.230469-7.769532 2.730469-11.773438l-17.464844-27.90625h23.601562l14.558594 23.296875c2.496094 4.007813 7.769532 5.230469 11.777344 2.730469 4.003906-2.496094 5.226562-7.769532 2.730469-11.773438l-8.976563-14.253906h27.304688c4.714844 0 8.535156-3.820312 8.535156-8.53125 0-4.714844-3.820312-8.535156-8.535156-8.535156zm-204.269532 33.476562-43.195312 24.9375-43.203125-24.9375v-49.882812l43.203125-24.9375 43.195312 24.9375zm0 0"/></svg>