<svg height="511pt" viewBox="1 -8 511.99974 511" width="511pt" xmlns="http://www.w3.org/2000/svg"><path d="m503.464844 282.101562c-15.953125.378907-31.828125-2.363281-46.734375-8.066406-16.675781-6.335937-34.417969-9.394531-52.25-9-17.847657-.398437-35.605469 2.65625-52.292969 9l-3.96875 1.347656c24.617188-50.914062 3.296875-112.144531-47.617188-136.761718-50.917968-24.617188-112.144531-3.296875-136.761718 47.621094-12.953125 26.785156-13.613282 57.878906-1.808594 85.191406-2.679688.851562-5.265625 1.707031-7.808594 2.558594-14.890625 5.71875-30.753906 8.472656-46.703125 8.109374-15.941406.378907-31.804687-2.359374-46.695312-8.066406-16.6875-6.34375-34.441407-9.402344-52.289063-9-4.714844 0-8.535156 3.820313-8.535156 8.53125 0 4.710938 3.820312 8.535156 8.535156 8.535156 15.941406-.378906 31.800782 2.359376 46.691406 8.0625 16.6875 6.347657 34.445313 9.402344 52.292969 9.003907 17.84375.394531 35.59375-2.664063 52.277344-9.003907 14.894531-5.707031 30.761719-8.445312 46.710937-8.0625 15.9375-.378906 31.796876 2.359376 46.683594 8.0625 16.667969 6.335938 34.40625 9.394532 52.234375 9.003907 17.84375.394531 35.597657-2.660157 52.28125-9.003907 14.917969-5.707031 30.804688-8.449218 46.773438-8.0625 15.953125-.378906 31.824219 2.359376 46.726562 8.0625 16.679688 6.339844 34.421875 9.394532 52.257813 9.003907 4.714844 0 8.535156-3.820313 8.535156-8.535157 0-4.710937-3.820312-8.53125-8.535156-8.53125zm-178.34375-1.1875c-6.511719.824219-13.066406 1.21875-19.628906 1.1875-15.941407.378907-31.800782-2.363281-46.691407-8.066406-16.6875-6.34375-34.445312-9.402344-52.292969-9-9.265624-.085937-18.515624.65625-27.648437 2.21875-20.117187-42.621094-1.878906-93.476562 40.742187-113.597656 42.617188-20.117188 93.476563-1.875 113.59375 40.742188 13.289063 28.152343 10.191407 61.304687-8.074218 86.507812zm0 0"/><path d="m357.71875 341.363281c6.339844-2.335937 12.839844-4.226562 19.445312-5.65625 4.621094-.941406 7.597657-5.453125 6.65625-10.070312-.941406-4.617188-5.449218-7.597657-10.070312-6.65625-7.34375 1.574219-14.566406 3.664062-21.613281 6.253906-14.898438 5.703125-30.765625 8.441406-46.710938 8.066406-15.941406.378907-31.804687-2.359375-46.695312-8.066406-16.664063-6.335937-34.398438-9.390625-52.222657-9-17.847656-.398437-35.601562 2.660156-52.285156 9-6.3125 2.332031-12.785156 4.214844-19.363281 5.640625-4.617187.945312-7.597656 5.453125-6.652344 10.070312.941407 4.617188 5.449219 7.597657 10.066407 6.65625 7.308593-1.578124 14.496093-3.660156 21.515624-6.230468 14.894532-5.710938 30.765626-8.453125 46.71875-8.070313 15.9375-.378906 31.796876 2.359375 46.683594 8.0625 16.671875 6.335938 34.40625 9.394531 52.234375 9.003907 17.847657.394531 35.605469-2.660157 52.292969-9.003907zm0 0"/><path d="m255.316406 390.175781c4.703125.375 8.820313-3.128906 9.195313-7.832031.378906-4.699219-3.128907-8.816406-7.828125-9.191406-5.660156-.511719-11.289063-1.328125-16.863282-2.441406-17.441406-3.746094-35.445312-4.082032-53.015624-.992188-6.167969.914062-12.28125 2.160156-18.3125 3.730469-4.558594 1.203125-7.28125 5.867187-6.078126 10.425781.988282 3.75 4.375 6.359375 8.253907 6.359375.734375 0 1.464843-.097656 2.175781-.289063 5.449219-1.410156 10.96875-2.53125 16.535156-3.363281 15.703125-2.78125 31.796875-2.46875 47.378906.921875 6.136719 1.210938 12.332032 2.101563 18.558594 2.671875zm0 0"/><path d="m249.171875 492.019531c.113281.144531.292969.207031.402344.332031.867187.847657 1.820312 1.597657 2.851562 2.238282 2.25 1.125 4.898438 1.125 7.148438 0 1.03125-.640625 1.984375-1.390625 2.851562-2.238282.109375-.125.289063-.1875.402344-.332031l25.597656-34.132812c2.824219-3.773438 2.058594-9.121094-1.714843-11.945313-3.769532-2.820312-9.109376-2.058594-11.9375 1.707032l-10.238282 13.652343v-42.667969c0-4.710937-3.820312-8.53125-8.535156-8.53125-4.710938 0-8.53125 3.820313-8.53125 8.53125v42.667969l-10.242188-13.652343c-2.828124-3.773438-8.175781-4.535157-11.945312-1.707032-3.769531 2.824219-4.535156 8.175782-1.707031 11.945313zm0 0"/><path d="m236.5 165.464844c-22.074219 6.59375-39.34375 23.863281-45.933594 45.9375-1.339844 4.515625 1.234375 9.265625 5.75 10.605468.789063.238282 1.609375.359376 2.433594.359376 3.773438-.003907 7.097656-2.484376 8.175781-6.101563 4.941407-16.550781 17.890625-29.496094 34.4375-34.441406 4.507813-1.375 7.046875-6.144531 5.671875-10.652344-1.363281-4.460937-6.054687-7.003906-10.535156-5.707031zm0 0"/><path d="m352.546875 122.289062-12.066406 12.074219c-3.46875 3.191407-3.691407 8.589844-.5 12.058594 3.191406 3.464844 8.589843 3.691406 12.058593.5.171876-.160156.339844-.328125.5-.5l12.074219-12.074219c3.273438-3.390625 3.179688-8.792968-.210937-12.066406-3.304688-3.195312-8.550782-3.195312-11.855469 0zm0 0"/><path d="m159.460938 146.421875c3.46875 3.191406 8.867187 2.964844 12.058593-.5 3.007813-3.269531 3.007813-8.292969 0-11.558594l-12.074219-12.074219c-3.390624-3.273437-8.792968-3.179687-12.066406.207032-3.191406 3.308594-3.191406 8.550781 0 11.859375zm0 0"/><path d="m128 222.367188h-34.132812c-4.714844 0-8.535157 3.820312-8.535157 8.53125 0 4.714843 3.820313 8.535156 8.535157 8.535156h34.132812c4.710938 0 8.53125-3.820313 8.53125-8.535156 0-4.710938-3.820312-8.53125-8.53125-8.53125zm0 0"/><path d="m384 222.367188c-4.714844 0-8.535156 3.820312-8.535156 8.53125 0 4.714843 3.824218 8.535156 8.535156 8.535156h34.132812c4.714844 0 8.535157-3.820313 8.535157-8.535156 0-4.710938-3.820313-8.53125-8.535157-8.53125zm0 0"/><path d="m264.535156 102.898438v-25.597657c0-4.714843-3.824218-8.535156-8.535156-8.535156s-8.535156 3.820313-8.535156 8.535156v25.597657c0 4.714843 3.824218 8.535156 8.535156 8.535156s8.535156-3.820313 8.535156-8.535156zm0 0"/><path d="m494.933594 85.832031c-.011719-15.890625-10.972656-29.679687-26.453125-33.277343-3.597657-15.480469-17.386719-26.441407-33.28125-26.453126h-8.53125c-15.894531.011719-29.683594 10.972657-33.28125 26.453126-18.378907 4.1875-29.886719 22.484374-25.695313 40.863281 3.546875 15.566406 17.410156 26.59375 33.375 26.546875h59.734375c18.851563 0 34.132813-15.28125 34.132813-34.132813zm-110.933594 0c0-9.425781 7.640625-17.066406 17.066406-17.066406 4.714844 0 8.535156-3.820313 8.535156-8.53125 0-9.425781 7.640626-17.066406 17.066407-17.066406h8.53125c9.425781 0 17.066406 7.640625 17.066406 17.066406 0 4.710937 3.820313 8.53125 8.535156 8.53125 9.425781 0 17.066407 7.640625 17.066407 17.066406s-7.640626 17.066407-17.066407 17.066407h-59.734375c-9.425781 0-17.066406-7.640626-17.066406-17.066407zm0 0"/><path d="m118.613281 26.953125c-3.597656-15.480469-17.386719-26.441406-33.28125-26.453125h-8.53125c-15.894531.011719-29.683593 10.972656-33.28125 26.453125-18.378906 4.1875-29.882812 22.484375-25.695312 40.863281 3.546875 15.566406 17.410156 26.59375 33.375 26.550782h59.734375c18.851562.050781 34.175781-15.1875 34.230468-34.039063.042969-15.964844-10.984374-29.828125-26.550781-33.375zm-7.679687 50.347656h-59.734375c-9.425781 0-17.066407-7.640625-17.066407-17.066406s7.640626-17.066406 17.066407-17.066406c4.714843 0 8.535156-3.820313 8.535156-8.535157 0-9.425781 7.640625-17.066406 17.066406-17.066406h8.53125c9.425781 0 17.066407 7.640625 17.066407 17.066406 0 4.714844 3.824218 8.535157 8.535156 8.535157 9.425781 0 17.066406 7.640625 17.066406 17.066406s-7.640625 17.066406-17.066406 17.066406zm0 0"/></svg>