<svg height="511pt" viewBox="1 -4 511.99999 511" width="511pt" xmlns="http://www.w3.org/2000/svg"><path d="m193.261719 304.699219c-4.632813-1.238281-9.390625 1.515625-10.628907 6.144531l-9.253906 34.734375c-1.402344 4.585937 1.183594 9.4375 5.769532 10.839844 4.585937 1.398437 9.4375-1.183594 10.839843-5.769531.058594-.195313.113281-.390626.15625-.589844l9.265625-34.734375c1.234375-4.632813-1.515625-9.390625-6.148437-10.625zm0 0"/><path d="m310.644531 447.050781c2.683594 0 5.214844-1.238281 6.859375-3.359375l54.027344-69.460937c3.066406-3.6875 2.5625-9.160157-1.121094-12.230469-3.6875-3.066406-9.160156-2.5625-12.230468 1.121094-.121094.148437-.238282.300781-.351563.453125l-54.023437 69.464843c-2.945313 3.785157-2.265626 9.238282 1.519531 12.183594 1.523437 1.183594 3.394531 1.828125 5.320312 1.828125zm0 0"/><path d="m267.371094 500.757812 24.121094-31.007812c2.945312-3.785156 2.265624-9.238281-1.515626-12.1875-3.785156-2.945312-9.238281-2.265625-12.1875 1.515625l-24.121093 31.015625c-3.027344 3.71875-2.464844 9.1875 1.253906 12.214844s9.1875 2.46875 12.214844-1.25c.078125-.101563.15625-.199219.234375-.300782zm0 0"/><path d="m191.316406 408.527344-8.683594 32.558594c-1.3125 4.613281 1.359376 9.417968 5.972657 10.734374 4.609375 1.3125 9.414062-1.359374 10.730469-5.972656.027343-.09375.050781-.183594.074218-.28125l8.683594-32.558594c1.3125-4.613281-1.359375-9.417968-5.96875-10.730468-4.613281-1.316406-9.417969 1.355468-10.734375 5.96875-.023437.09375-.050781.1875-.074219.28125zm0 0"/><path d="m457.628906 142.035156c-8.609375-32.195312-37.734375-54.617187-71.058594-54.703125-21.910156-42.929687-68.929687-66.910156-116.542968-59.433593-25.5625-31.664063-71.953125-36.605469-103.617188-11.042969-11.539062 9.320312-20 21.90625-24.273437 36.109375-8.605469-5.921875-18.8125-9.078125-29.261719-9.046875-25.410156.03125-47.105469 18.363281-51.375 43.414062h-.71875c-33.570312 0-60.78125 27.210938-60.78125 60.78125 0 33.566407 27.210938 60.777344 60.78125 60.777344h43.621094c-.085938 1.441406-.207032 2.875-.207032 4.34375.046876 40.738281 33.0625 73.753906 73.804688 73.800781h44.558594l-22.574219 84.589844c-1.238281 4.632812 1.515625 9.390625 6.148437 10.628906.734376.195313 1.492188.296875 2.253907.292969h31.09375l-39.273438 109.960937c-1.609375 4.515626.75 9.484376 5.265625 11.09375 3.527344 1.253907 7.464844.109376 9.765625-2.84375l121.558594-156.292968c2.945313-3.785156 2.265625-9.238282-1.519531-12.183594-1.523438-1.1875-3.398438-1.828125-5.328125-1.832031h-39.074219l19.96875-43.414063h127.640625c40.757813-.15625 73.671875-33.328125 73.515625-74.089844-.128906-33.167968-22.371094-62.179687-54.371094-70.910156zm-351.324218 49.492188h-45.523438c-23.976562 0-43.414062-19.4375-43.414062-43.414063 0-23.980469 19.4375-43.414062 43.414062-43.414062h8.679688c4.796874 0 8.683593-3.890625 8.683593-8.683594 0-19.183594 15.550781-34.730469 34.730469-34.730469 11.066406-.007812 21.460938 5.308594 27.925781 14.289063 2.863281 3.847656 8.304688 4.644531 12.148438 1.78125 2.042969-1.523438 3.316406-3.867188 3.480469-6.40625 1.757812-31.039063 28.34375-54.777344 59.382812-53.023438 12.914062.730469 25.1875 5.890625 34.746094 14.609375-45.894532 15.46875-76.824219 58.460938-76.902344 106.894532v.128906c-30.8125 1.863281-57.230469 22.664062-66.257812 52.183594-.359376-.09375-.726563-.167969-1.09375-.214844zm163.113281 143.976562c-2.003907 4.355469-.097657 9.511719 4.261719 11.519532 1.136718.519531 2.371093.792968 3.625.792968h34.886718l-77.417968 99.539063 25.179687-70.574219c1.613281-4.515625-.742187-9.484375-5.257813-11.09375-.929687-.332031-1.90625-.503906-2.894531-.503906h-32.125l30.09375-112.878906h57.914063zm169.066406-65.832031h-119.652344l10.316407-22.417969c2.003906-4.359375.097656-9.515625-4.257813-11.519531-1.136719-.523437-2.375-.792969-3.625-.792969h-78.144531c-3.933594 0-7.375 2.640625-8.390625 6.441406l-7.542969 28.289063h-49.1875c-31.171875 0-56.441406-25.269531-56.441406-56.4375 0-31.171875 25.269531-56.441406 56.441406-56.441406h4.339844c4.796875 0 8.683594-3.886719 8.683594-8.679688v-8.683593c-.0625-52.722657 42.628906-95.507813 95.347656-95.570313 37.402344-.042969 71.382812 21.757813 86.929687 55.777344 1.414063 3.082031 4.492188 5.058593 7.882813 5.058593h5.210937c27.1875-.003906 50.503907 19.394532 55.449219 46.125.65625 3.527344 3.417969 6.289063 6.945312 6.945313 30.632813 5.761719 50.796876 35.265625 45.035157 65.898437-5.007813 26.632813-28.242188 45.945313-55.339844 46.007813zm0 0"/><path d="m364.679688 234.941406h34.730468v17.363282h-34.730468zm0 0"/><path d="m416.777344 234.941406h17.363281v17.363282h-17.363281zm0 0"/><path d="m182.339844 234.941406h17.367187v17.363282h-17.367187zm0 0"/></svg>