<svg height="511.99999pt" viewBox="1 1 511.99999 511.99999" width="511.99999pt" xmlns="http://www.w3.org/2000/svg"><path d="m54.855469 256c0 111.089844 90.054687 201.144531 201.144531 201.144531s201.144531-90.054687 201.144531-201.144531-90.054687-201.144531-201.144531-201.144531c-111.035156.128906-201.015625 90.109375-201.144531 201.144531zm384 0c0 100.988281-81.867188 182.855469-182.855469 182.855469s-182.855469-81.867188-182.855469-182.855469 81.867188-182.855469 182.855469-182.855469c100.941406.113281 182.742188 81.914063 182.855469 182.855469zm0 0"/><path d="m201.144531 101.019531c-.101562 0-.222656 0-.320312.046875-.75.253906-1.445313.613282-2.195313.914063-3.183594 1.1875-6.34375 2.402343-9.425781 3.785156-83.324219 36.179687-121.542969 133.054687-85.363281 216.378906 34.113281 78.558594 122.796875 117.796875 203.871094 90.199219 3.894531-1.34375 7.726562-2.851562 11.492187-4.472656 1.957031-.8125 3.832031-1.828125 5.753906-2.679688 1.582031-.757812 3.179688-1.488281 4.742188-2.292968 81.199219-40.582032 114.121093-139.304688 73.535156-220.503907-37.128906-74.285156-123.84375-109.203125-202.089844-81.375zm119.121094 286.171875c-1.308594.648438-2.613281 1.296875-3.941406 1.902344-1.5.703125-3 1.40625-4.515625 2.054688-74.878906 30.273437-160.121094-5.886719-190.390625-80.765626-29.648438-73.332031 4.386719-156.945312 76.816406-188.726562l47.378906 138.054688c.574219 1.65625 1.609375 3.117187 2.980469 4.207031l114.449219 90.441406c-12.089844 13.503906-26.589844 24.640625-42.757813 32.839844zm82.019531-131.191406c0 30.335938-9.492187 59.910156-27.144531 84.582031l-113.097656-89.371093-46.5625-135.664063c77.386719-22.5625 158.410156 21.886719 180.972656 99.273437 3.898437 13.378907 5.863281 27.246094 5.832031 41.179688zm0 0"/><path d="m246.855469 9.144531v18.285157c0 5.046874 4.09375 9.140624 9.144531 9.140624s9.144531-4.09375 9.144531-9.140624v-18.285157c0-5.050781-4.09375-9.144531-9.144531-9.144531s-9.144531 4.09375-9.144531 9.144531zm0 0"/><path d="m9.144531 246.855469c-5.050781 0-9.144531 4.09375-9.144531 9.144531s4.09375 9.144531 9.144531 9.144531h18.285157c5.046874 0 9.140624-4.09375 9.140624-9.144531s-4.09375-9.144531-9.140624-9.144531zm0 0"/><path d="m265.144531 502.855469v-18.285157c0-5.046874-4.09375-9.140624-9.144531-9.140624s-9.140625 4.09375-9.140625 9.140624v18.285157c0 5.050781 4.089844 9.144531 9.140625 9.144531s9.144531-4.09375 9.144531-9.144531zm0 0"/><path d="m502.855469 265.144531c5.050781 0 9.144531-4.09375 9.144531-9.144531s-4.09375-9.140625-9.144531-9.140625h-18.285157c-5.046874 0-9.140624 4.089844-9.140624 9.140625s4.09375 9.144531 9.140624 9.144531zm0 0"/><path d="m466.285156 54.855469c0-5.046875-4.09375-9.140625-9.140625-9.140625h-27.429687c-5.050782 0-9.144532 4.09375-9.144532 9.140625 0 5.050781 4.09375 9.144531 9.144532 9.144531h5.355468l-23.90625 23.910156c-3.632812 3.507813-3.734374 9.292969-.226562 12.925782 3.507812 3.632812 9.296875 3.734374 12.929688.226562.074218-.074219.152343-.148438.222656-.226562l23.910156-23.90625v5.355468c0 5.050782 4.09375 9.144532 9.144531 9.144532 5.046875 0 9.140625-4.09375 9.140625-9.144532zm0 0"/><path d="m466.285156 457.144531v-27.429687c0-5.050782-4.09375-9.144532-9.140625-9.144532-5.050781 0-9.144531 4.09375-9.144531 9.144532v5.355468l-23.910156-23.90625c-3.628906-3.507812-9.417969-3.410156-12.925782.222657-3.421874 3.542969-3.421874 9.160156 0 12.703125l23.90625 23.910156h-5.355468c-5.050782 0-9.144532 4.09375-9.144532 9.144531 0 5.046875 4.09375 9.140625 9.144532 9.140625h27.429687c5.046875 0 9.140625-4.09375 9.140625-9.140625zm0 0"/><path d="m54.855469 45.714844c-5.046875 0-9.140625 4.09375-9.140625 9.140625v27.429687c0 5.050782 4.09375 9.144532 9.140625 9.144532 5.050781 0 9.144531-4.09375 9.144531-9.144532v-5.355468l23.910156 23.90625c3.628906 3.507812 9.417969 3.40625 12.925782-.222657 3.421874-3.542969 3.421874-9.160156 0-12.703125l-23.90625-23.910156h5.355468c5.050782 0 9.144532-4.09375 9.144532-9.144531 0-5.046875-4.09375-9.140625-9.144532-9.140625zm0 0"/><path d="m45.714844 457.144531c0 5.046875 4.09375 9.140625 9.140625 9.140625h27.429687c5.050782 0 9.144532-4.09375 9.144532-9.140625 0-5.050781-4.09375-9.144531-9.144532-9.144531h-5.355468l23.90625-23.910156c3.507812-3.628906 3.40625-9.417969-.222657-12.925782-3.542969-3.421874-9.160156-3.421874-12.703125 0l-23.910156 23.90625v-5.355468c0-5.050782-4.09375-9.144532-9.144531-9.144532-5.046875 0-9.140625 4.09375-9.140625 9.144532zm0 0"/></svg>