<svg height="512pt" viewBox="-30 0 512 512.00066" width="512pt" xmlns="http://www.w3.org/2000/svg"><path d="m376.605469 87.683594c-38.730469-34.960938-88.480469-55.25-140.609375-57.34375v-20.300782c0-5.542968-4.496094-10.039062-10.039063-10.039062-5.546875 0-10.039062 4.496094-10.039062 10.039062v20.359376c-5.191407.230468-10.402344.5625-15.644531 1.144531-123.984376 14.199219-212.984376 126.21875-198.785157 250.203125 1.238281 10.808594 3.253907 21.511718 6.035157 32.03125 1.046874 3.894531 4.324218 6.785156 8.320312 7.335937 4.011719.570313 7.96875-1.328125 10.039062-4.808593 13.386719-22.355469 42.367188-29.628907 64.722657-16.242188 6.402343 3.835938 11.804687 9.132812 15.761719 15.460938l.625 1.003906c1.835937 2.945312 5.0625 4.734375 8.53125 4.726562 3.460937 0 6.679687-1.78125 8.511718-4.71875l5.964844-9.535156c13.808594-22.101562 42.914062-28.824219 65.015625-15.019531 4.9375 3.082031 9.257813 7.050781 12.75 11.707031l8.152344 10.871094v157.285156c0 22.179688 17.976562 40.15625 40.15625 40.15625 22.175781 0 40.15625-17.976562 40.15625-40.15625v-20.078125c0-5.546875-4.496094-10.039063-10.039063-10.039063-5.546875 0-10.039062 4.496094-10.039062 10.039063v20.078125c0 11.089844-8.988282 20.078125-20.078125 20.078125-11.089844 0-20.078125-8.988281-20.078125-20.078125v-157.285156l8.148437-10.871094c15.636719-20.847656 45.214844-25.070312 66.058594-9.433594 4.65625 3.488282 8.625 7.8125 11.707031 12.746094l5.964844 9.535156c1.832031 2.9375 5.050781 4.71875 8.511719 4.71875 3.464843-.003906 6.683593-1.792968 8.511719-4.738281l.613281-1.003906c8.574219-13.839844 23.71875-22.234375 39.996093-22.175781h.460938c16.425781.089843 31.601562 8.78125 39.988281 22.898437 1.796875 3.113281 5.121094 5.027344 8.714844 5.019531.4375 0 .871094-.03125 1.304687-.089844 4.039063-.527343 7.359376-3.449218 8.402344-7.386718 21.625-82.113282-4.546875-169.417969-67.773437-226.09375zm-310.867188 185.605468c-15.738281.089844-30.941406 5.742188-42.917969 15.960938-3.039062-18.8125-3.496093-37.953125-1.355468-56.890625 11.101562-94.707031 85.703125-169.441406 180.386718-180.707031l-10.300781 11.234375c-55.417969 60.335937-86.140625 139.296875-86.066406 221.222656v1.726563c-11.597656-8.257813-25.507813-12.648438-39.746094-12.546876zm104.289063-8.554687c-.953125 0-1.90625 0-2.863282.070313-15.351562.65625-30.011718 6.554687-41.539062 16.714843.546875-76.015625 29.316406-149.117187 80.722656-205.121093l9.570313-10.429688v217.015625c-12.421875-11.695313-28.832031-18.21875-45.890625-18.25zm114.71875.070313c-18.046875-.804688-35.640625 5.757812-48.75 18.179687v-217.015625l9.566406 10.429688c51.40625 56.003906 80.175781 129.105468 80.722656 205.121093-11.527344-10.160156-26.1875-16.058593-41.539062-16.714843zm144.34375 24.414062c-11.984375-10.199219-27.183594-15.839844-42.917969-15.929688h-.652344c-14.023437-.03125-27.699219 4.347657-39.09375 12.519532v-1.699219c.082031-81.9375-30.640625-160.910156-86.066406-221.253906l-10.308594-11.261719c42.117188 4.800781 81.679688 22.65625 113.152344 51.058594 52.320313 46.898437 77.148437 117.214844 65.875 186.566406zm0 0"/></svg>