<svg height="512pt" viewBox="0 -40 512.00003 512" width="512pt" xmlns="http://www.w3.org/2000/svg"><path d="m150.054688 379.554688h-35.308594c-4.875 0-8.824219 3.953124-8.824219 8.828124s3.949219 8.828126 8.824219 8.828126h35.308594c4.875 0 8.828124-3.953126 8.828124-8.828126s-3.953124-8.828124-8.828124-8.828124zm0 0"/><path d="m370.722656 247.15625c29.25-.023438 52.941406-23.753906 52.917969-53.003906-.015625-18.722656-9.917969-36.046875-26.039063-45.566406 23.589844-24.601563 22.773438-63.667969-1.828124-87.261719-24.601563-23.589844-63.667969-22.773438-87.261719 1.828125-8.421875 8.785156-14.0625 19.859375-16.207031 31.839844-8.257813-5.535157-17.660157-9.128907-27.503907-10.523438v-31.5c-.027343-24.363281-19.769531-44.105469-44.132812-44.136719h-176.535157c-24.363281.03125-44.1054682 19.773438-44.132812 44.136719v335.414062c.0273438 24.363282 19.769531 44.105469 44.132812 44.132813h176.535157c24.363281-.027344 44.105469-19.769531 44.132812-44.132813v-141.226562zm-17.652344-185.363281c24.375.015625 44.121094 19.785156 44.105469 44.160156-.007812 14.257813-6.902343 27.632813-18.507812 35.90625-1.5-.226563-3.011719-.414063-4.546875-.511719-11.105469-22.152344-37.203125-32.269531-60.339844-23.398437-1.371094-2.445313-2.894531-4.804688-4.5625-7.0625-2.820312-24.128907 14.460938-45.976563 38.59375-48.796875 1.742188-.203125 3.5-.300782 5.257812-.296875zm-51.699218 71.214843c1.710937 4.566407 6.796875 6.878907 11.363281 5.167969.582031-.21875 1.140625-.5 1.664063-.835937 14.167968-9.199219 33.109374-5.175782 42.308593 8.992187 1.355469 2.085938 2.453125 4.332031 3.265625 6.6875 1.25 3.519531 4.585938 5.871094 8.324219 5.867188h2.425781c19.5 0 35.308594 15.808593 35.308594 35.308593s-15.808594 35.304688-35.308594 35.304688h-158.882812c-19.429688.148438-35.300782-15.484375-35.445313-34.914062-.117187-15.59375 10.039063-29.402344 24.960938-33.933594 3.789062-1.1875 6.316406-4.761719 6.179687-8.730469l-.105468-1.859375c.082031-26.8125 21.886718-48.480469 48.695312-48.398438 20.121094.066407 38.117188 12.53125 45.246094 31.34375zm-195.449219-44.734374h52.960937c14.625 0 26.480469-11.855469 26.480469-26.480469v-8.824219h17.652344c4.875 0 8.824219 3.949219 8.824219 8.824219v39.042969c-13.027344 11.621093-20.921875 27.9375-21.949219 45.367187-26.574219 12.058594-38.339844 43.375-26.28125 69.949219 8.585937 18.917968 27.457031 31.050781 48.230469 31.003906v97.09375h-158.878906v-282.457031c0-4.875 3.953124-8.824219 8.824218-8.824219h17.65625v8.824219c0 14.625 11.855469 26.480469 26.480469 26.480469zm141.226563 300.109374c0 14.625-11.855469 26.480469-26.480469 26.480469h-176.535157c-14.625 0-26.480468-11.855469-26.480468-26.480469v-335.414062c0-14.625 11.855468-26.480469 26.480468-26.480469h176.535157c14.625 0 26.480469 11.855469 26.480469 26.480469v31.554688c-6.085938.808593-12.027344 2.46875-17.652344 4.933593v-27.664062c0-14.625-11.855469-26.480469-26.480469-26.480469h-26.480469c-4.875 0-8.828125 3.953125-8.828125 8.828125v17.652344c0 4.875-3.953125 8.828125-8.824219 8.828125h-52.960937c-4.875 0-8.828125-3.953125-8.828125-8.828125v-17.652344c0-4.875-3.953125-8.828125-8.824219-8.828125h-26.480469c-14.625 0-26.480468 11.855469-26.480468 26.480469v291.28125c0 4.875 3.949218 8.828125 8.824218 8.828125h176.535157c4.875 0 8.828125-3.953125 8.828125-8.828125v-105.917969h17.652344zm0 0"/><path d="m511.066406 393.265625-8.824218-17.65625c-2.179688-4.363281-7.484376-6.132813-11.847657-3.953125s-6.132812 7.484375-3.953125 11.84375l8.828125 17.65625c2.175781 4.363281 7.480469 6.132812 11.84375 3.953125s6.132813-7.480469 3.953125-11.84375zm0 0"/><path d="m308.054688 269.691406c-2.179688-4.363281-7.484376-6.136718-11.847657-3.957031s-6.132812 7.484375-3.953125 11.847656l8.824219 17.652344c2.179687 4.363281 7.484375 6.132813 11.847656 3.953125 4.363281-2.175781 6.132813-7.480469 3.953125-11.84375zm0 0"/><path d="m475.761719 322.648438c-2.179688-4.363282-7.484375-6.132813-11.847657-3.953126-4.363281 2.179688-6.132812 7.484376-3.953124 11.847657l8.828124 17.652343c2.175782 4.363282 7.480469 6.132813 11.84375 3.953126 4.363282-2.179688 6.132813-7.480469 3.953126-11.84375zm0 0"/><path d="m405.148438 322.648438c-2.179688-4.363282-7.484376-6.132813-11.847657-3.953126-4.363281 2.179688-6.132812 7.484376-3.953125 11.847657l8.824219 17.652343c2.179687 4.363282 7.484375 6.132813 11.847656 3.953126 4.363281-2.179688 6.132813-7.480469 3.953125-11.84375zm0 0"/><path d="m449.28125 269.691406c-2.179688-4.363281-7.484375-6.136718-11.847656-3.957031-4.363282 2.179687-6.132813 7.484375-3.953125 11.847656l8.828125 17.652344c2.175781 4.363281 7.480468 6.132813 11.84375 3.953125 4.363281-2.175781 6.132812-7.480469 3.953125-11.84375zm0 0"/><path d="m431.628906 375.609375c-2.179687-4.363281-7.484375-6.132813-11.847656-3.953125s-6.132812 7.484375-3.953125 11.84375l8.824219 17.65625c2.179687 4.363281 7.484375 6.132812 11.847656 3.953125s6.132812-7.480469 3.953125-11.84375zm0 0"/><path d="m378.667969 269.691406c-2.179688-4.363281-7.484375-6.136718-11.847657-3.957031-4.363281 2.179687-6.132812 7.484375-3.953124 11.847656l8.828124 17.652344c2.175782 4.363281 7.480469 6.132813 11.84375 3.953125 4.363282-2.175781 6.132813-7.480469 3.953126-11.84375zm0 0"/><path d="m334.53125 322.648438c-2.175781-4.363282-7.480469-6.132813-11.84375-3.953126-4.363281 2.179688-6.132812 7.484376-3.953125 11.847657l8.824219 17.652343c2.179687 4.363282 7.484375 6.132813 11.847656 3.953126 4.363281-2.179688 6.132812-7.480469 3.953125-11.84375zm0 0"/><path d="m361.011719 375.609375c-2.175781-4.363281-7.480469-6.132813-11.84375-3.953125s-6.132813 7.484375-3.953125 11.84375l8.824218 17.65625c2.179688 4.363281 7.484376 6.132812 11.847657 3.953125s6.132812-7.480469 3.953125-11.84375zm0 0"/><path d="m355.621094 94.761719c3.109375.484375 5.726562 2.589843 6.867187 5.527343 1.757813 4.546876 6.871094 6.808594 11.421875 5.046876 4.546875-1.757813 6.808594-6.875 5.046875-11.421876-3.4375-8.8125-11.300781-15.132812-20.644531-16.59375-4.789062-.910156-9.410156 2.238282-10.316406 7.027344-.910156 4.789063 2.234375 9.40625 7.023437 10.316406.214844.039063.429688.074219.644531.097657zm0 0"/><path d="m302.988281 33.8125c2.152344 4.386719 7.453125 6.199219 11.839844 4.046875s6.199219-7.453125 4.046875-11.839844l-7.804688-15.84375c-2.152343-4.386719-7.453124-6.199219-11.839843-4.046875s-6.199219 7.453125-4.046875 11.839844zm0 0"/><path d="m453.003906 134.863281-16.707031-5.675781c-4.613281-1.574219-9.628906.886719-11.207031 5.5 0 .003906 0 .011719-.003906.015625-.308594.914063-.464844 1.875-.46875 2.84375 0 3.777344 2.40625 7.140625 5.984374 8.355469l16.71875 5.6875c.917969.308594 1.875.464844 2.84375.464844 3.777344.003906 7.140626-2.402344 8.359376-5.984376.304687-.914062.464843-1.875.464843-2.839843.007813-3.785157-2.402343-7.152344-5.984375-8.367188zm0 0"/><path d="m429.085938 78.953125c1.347656.007813 2.679687-.296875 3.890624-.882813l15.890626-7.804687c4.375-2.152344 6.175781-7.441406 4.023437-11.816406s-7.445313-6.179688-11.820313-4.027344l-15.886718 7.804687c-3.027344 1.488282-4.941406 4.570313-4.933594 7.945313 0 4.875 3.953125 8.824219 8.824219 8.824219zm0 0"/><path d="m375.480469 33.910156c4.613281 1.574219 9.628906-.886718 11.203125-5.503906.003906-.003906.003906-.007812.007812-.011719l5.675782-16.71875c.308593-.917969.464843-1.875.464843-2.84375.003907-4.875-3.945312-8.82812475-8.816406-8.832031-3.785156-.00390625-7.152344 2.40625-8.367187 5.992188l-5.683594 16.707031c-.308594.921875-.46875 1.882812-.46875 2.851562 0 3.78125 2.40625 7.140625 5.984375 8.359375zm0 0"/></svg>