<svg height="512pt" viewBox="0 -48 512.00011 512" width="512pt" xmlns="http://www.w3.org/2000/svg"><path d="m251.167969 96.601562h-96.605469c-5.332031 0-9.660156 4.324219-9.660156 9.660157 0 5.335937 4.328125 9.660156 9.660156 9.660156h96.605469c21.339843.003906 38.640625-17.296875 38.644531-38.636719 0-.1875-.003906-.375-.003906-.5625-.296875-21.339844-17.832032-38.402344-39.171875-38.105468-16.191407.222656-30.523438 10.515624-35.910157 25.789062-1.773437 5.03125.863282 10.546875 5.894532 12.324219 5.03125 1.777343 10.550781-.859375 12.328125-5.890625 3.546875-10.066406 14.582031-15.347656 24.644531-11.796875 7.636719 2.691406 12.785156 9.863281 12.894531 17.957031.152344 10.671875-8.371093 19.445312-19.039062 19.601562-.09375 0-.1875 0-.28125 0zm0 0"/><path d="m9.660156 154.5625h241.507813c42.679687-.003906 77.273437-34.609375 77.269531-77.292969-.007812-42.679687-34.613281-77.27343725-77.292969-77.269531-29.84375.00390625-57.019531 17.191406-69.8125 44.15625-2.175781 4.871094.011719 10.585938 4.882813 12.761719 4.710937 2.101562 10.242187.132812 12.5625-4.472657 13.71875-28.921874 48.285156-41.25 77.207031-27.535156 28.925781 13.71875 41.253906 48.285156 27.535156 77.207032-9.589843 20.226562-29.96875 33.121093-52.351562 33.125h-241.507813c-5.335937 0-9.660156 4.328124-9.660156 9.660156 0 5.335937 4.324219 9.660156 9.660156 9.660156zm0 0"/><path d="m434.992188 357.429688c-8.355469.335937-15.914063-4.925782-18.5-12.878907-1.777344-5.03125-7.296876-7.667969-12.328126-5.890625s-7.667968 7.292969-5.890624 12.324219c5.457031 15.445313 20.058593 25.769531 36.4375 25.765625h.558593c20.847657-.441406 37.640625-17.234375 38.082031-38.082031.308594-21.335938-16.738281-38.886719-38.078124-39.195313-.1875-.003906-.375-.003906-.5625-.003906h-96.601563c-5.335937 0-9.660156 4.324219-9.660156 9.660156 0 5.335938 4.324219 9.660156 9.660156 9.660156h96.601563c10.671874 0 19.320312 8.648438 19.324218 19.316407 0 .09375-.003906.1875-.003906.285156-.335938 10.371094-8.667969 18.703125-19.039062 19.039063zm0 0"/><path d="m222.1875 260.828125c-5.335938 0-9.660156 4.324219-9.660156 9.660156 0 5.332031 4.324218 9.660157 9.660156 9.660157h212.523438c32.011718.007812 57.953124 25.964843 57.945312 57.976562-.011719 32.011719-25.96875 57.953125-57.980469 57.945312-22.382812-.007812-42.761719-12.902343-52.351562-33.125-2.175781-4.871093-7.890625-7.058593-12.761719-4.878906-4.871094 2.175782-7.054688 7.886719-4.878906 12.757813.0625.136719.125.273437.195312.410156 18.292969 38.5625 64.382813 54.992187 102.945313 36.699219 38.5625-18.296875 54.992187-64.386719 36.699219-102.949219-12.792969-26.964844-39.96875-44.152344-69.8125-44.15625zm0 0"/><path d="m173.882812 202.867188c0-5.335938-4.324218-9.660157-9.660156-9.660157h-86.941406c-5.335938 0-9.660156 4.324219-9.660156 9.660157 0 5.332031 4.324218 9.660156 9.660156 9.660156h86.941406c5.335938 0 9.660156-4.328125 9.660156-9.660156zm0 0"/><path d="m202.863281 212.527344h28.984375c5.332032 0 9.660156-4.328125 9.660156-9.660156 0-5.335938-4.328124-9.660157-9.660156-9.660157h-28.984375c-5.332031 0-9.660156 4.324219-9.660156 9.660157 0 5.332031 4.328125 9.660156 9.660156 9.660156zm0 0"/><path d="m260.828125 202.867188c0 5.332031 4.324219 9.660156 9.660156 9.660156h115.921875c5.335938 0 9.660156-4.328125 9.660156-9.660156 0-5.335938-4.324218-9.660157-9.660156-9.660157h-115.921875c-5.335937-.003906-9.660156 4.324219-9.660156 9.660157zm0 0"/><path d="m86.941406 115.921875h28.980469c5.335937 0 9.660156-4.324219 9.660156-9.660156 0-5.332031-4.324219-9.660157-9.660156-9.660157h-28.980469c-5.335937 0-9.660156 4.328126-9.660156 9.660157 0 5.335937 4.324219 9.660156 9.660156 9.660156zm0 0"/><path d="m9.660156 115.921875h38.640625c5.335938 0 9.660157-4.324219 9.660157-9.660156 0-5.332031-4.324219-9.660157-9.660157-9.660157h-38.640625c-5.335937 0-9.660156 4.324219-9.660156 9.660157 0 5.335937 4.324219 9.660156 9.660156 9.660156zm0 0"/><path d="m9.660156 212.527344h28.980469c5.335937 0 9.660156-4.328125 9.660156-9.660156 0-5.335938-4.324219-9.660157-9.660156-9.660157h-28.980469c-5.335937-.003906-9.660156 4.324219-9.660156 9.660157 0 5.332031 4.324219 9.660156 9.660156 9.660156zm0 0"/><path d="m309.128906 309.128906c0-5.335937-4.328125-9.660156-9.660156-9.660156h-28.980469c-5.335937 0-9.660156 4.324219-9.660156 9.660156 0 5.335938 4.324219 9.660156 9.660156 9.660156h28.980469c5.335938 0 9.660156-4.324218 9.660156-9.660156zm0 0"/><path d="m241.507812 309.128906c0-5.335937-4.328124-9.660156-9.660156-9.660156h-28.984375c-5.332031 0-9.660156 4.324219-9.660156 9.660156 0 5.335938 4.328125 9.660156 9.660156 9.660156h28.984375c5.332032 0 9.660156-4.324218 9.660156-9.660156zm0 0"/><path d="m193.203125 270.488281c0-5.335937-4.324219-9.660156-9.660156-9.660156h-28.980469c-5.332031 0-9.660156 4.324219-9.660156 9.660156 0 5.335938 4.328125 9.660157 9.660156 9.660157h28.980469c5.335937 0 9.660156-4.328126 9.660156-9.660157zm0 0"/><path d="m96.601562 260.828125c-5.335937 0-9.660156 4.324219-9.660156 9.660156 0 5.332031 4.324219 9.660157 9.660156 9.660157h19.320313c5.335937 0 9.660156-4.328126 9.660156-9.660157 0-5.335937-4.324219-9.660156-9.660156-9.660156zm0 0"/><path d="m173.882812 309.128906c0-5.335937-4.324218-9.660156-9.660156-9.660156h-67.621094c-5.335937 0-9.660156 4.324219-9.660156 9.660156 0 5.335938 4.324219 9.660156 9.660156 9.660156h67.621094c5.335938 0 9.660156-4.324218 9.660156-9.660156zm0 0"/></svg>