<svg height="511pt" viewBox="0 0 511 511.99953" width="511pt" xmlns="http://www.w3.org/2000/svg"><path d="m505.214844 136.617188-255.964844-39.820313c-.34375-.050781-.6875-.082031-1.035156-.09375l-85.320313-2.839844c-2.324219-.175781-4.605469.699219-6.210937 2.390625-1.664063 1.605469-2.605469 3.820313-2.605469 6.132813h-59.722656v-17.0625c0-4.714844-3.820313-8.535157-8.535157-8.535157h-16.617187l-.171875-9.828124c11.816406-3.183594 21.019531-12.457032 24.113281-24.300782h40.339844l-11.035156 11.035156c-3.386719 3.273438-3.480469 8.671876-.207031 12.0625 3.273437 3.390626 8.675781 3.484376 12.0625.210938.074218-.070312.140624-.140625.210937-.210938l25.597656-25.597656c3.328125-3.332031 3.328125-8.730468 0-12.0625l-25.597656-25.597656c-3.390625-3.273438-8.792969-3.179688-12.066406.210938-3.191407 3.304687-3.191407 8.546874 0 11.855468l11.035156 11.03125h-40.339844c-4.628906-18.179687-23.117187-29.167968-41.296875-24.539062-12.058594 3.066406-21.472656 12.480468-24.539062 24.539062h-18.277344c-4.710938 0-8.53125 3.820313-8.53125 8.53125 0 4.710938 3.820312 8.53125 8.53125 8.53125h18.277344c3.140625 12.042969 12.589844 21.421875 24.65625 24.472656l.171875 9.65625h-17.507813c-4.710937 0-8.53125 3.820313-8.53125 8.53125v213.308594c0 4.710938 3.820313 8.53125 8.53125 8.53125v196.242188c0 4.710937 3.820313 8.53125 8.53125 8.53125h34.128906c4.714844 0 8.53125-3.820313 8.53125-8.53125v-196.242188c4.714844 0 8.535157-3.820312 8.535157-8.53125v-25.597656h59.722656c0 4.710938 3.820313 8.53125 8.535156 8.53125h.28125l85.320313-2.839844c.347656-.011718.691406-.042968 1.03125-.09375l255.96875-39.820312c4.15625-.648438 7.222656-4.230469 7.21875-8.4375v-85.324219c0-4.203125-3.0625-7.78125-7.21875-8.429687zm-462.054688-102.488282c0-9.425781 7.640625-17.0625 17.066406-17.0625 9.421876 0 17.0625 7.636719 17.0625 17.0625 0 9.425782-7.640624 17.066406-17.0625 17.066406-9.425781 0-17.066406-7.640624-17.066406-17.066406zm25.597656 460.742188h-17.066406v-187.710938h17.066406zm8.53125-204.773438h-34.128906v-17.066406h34.128906zm0-34.128906h-34.128906v-22.289062l34.128906 11.375zm0-28.902344-34.128906-11.371094v-55.972656l34.128906-11.371094zm0-96.703125-34.128906 11.375v-22.285156h34.128906zm0-27.976562h-34.128906v-8.53125h34.128906zm17.066407 17.066406h15.679687l-15.679687 5.230469zm0 136.515625v-5.230469l15.679687 5.230469zm59.722656-3.304688-59.722656-19.90625v-90.097656l59.722656-19.90625zm85.324219 9.277344-68.257813 2.269532v-153l68.257813 2.269531zm85.320312-12.332031-68.257812 10.625v-145.050781l68.257812 10.625zm85.324219-13.265625-68.257813 10.621094v-118.503906l68.257813 10.613281zm85.324219-13.269531-68.257813 10.613281v-91.949219l68.257813 10.613281zm0 0"/><path d="m290.59375 349.820312h-42.660156c-4.710938 0-8.53125 3.820313-8.53125 8.535157 0 4.710937 3.820312 8.53125 8.53125 8.53125h42.660156c18.851562-.003907 34.128906-15.285157 34.125-34.136719-.003906-18.847656-15.285156-34.125-34.132812-34.121094-14.464844 0-27.355469 9.121094-32.175782 22.753906-1.566406 4.445313.761719 9.320313 5.207032 10.886719 4.441406 1.570313 9.316406-.757812 10.886718-5.203125 3.144532-8.886718 12.894532-13.539062 21.777344-10.398437 8.886719 3.144531 13.539062 12.894531 10.398438 21.78125-2.410157 6.8125-8.855469 11.371093-16.085938 11.371093zm0 0"/><path d="m307.660156 426.613281c0 4.710938 3.820313 8.53125 8.53125 8.53125h88.207032.171874 1.210938c16.492188.003907 29.859375 13.375 29.855469 29.867188-.003907 16.496093-13.378907 29.859375-29.871094 29.859375-15.203125-.003906-27.976563-11.429688-29.667969-26.535156-.121094-1.105469-.179687-2.21875-.179687-3.328126 0-4.714843-3.820313-8.535156-8.53125-8.535156-4.714844 0-8.535157 3.820313-8.535157 8.535156 0 1.734376.09375 3.46875.28125 5.195313 2.835938 25.761719 26.019532 44.347656 51.78125 41.511719 25.761719-2.835938 44.347657-26.019532 41.511719-51.78125-2.570312-23.335938-21.988281-41.183594-45.460937-41.777344-.101563 0-.195313-.058594-.296875-.058594h-90.476563c-4.703125 0-8.523437 3.808594-8.53125 8.515625zm0 0"/><path d="m444.175781 401.015625c4.710938 0 8.53125-3.820313 8.53125-8.53125 0-4.714844-3.820312-8.535156-8.53125-8.535156h-93.855469c-4.710937 0-8.53125 3.820312-8.53125 8.535156 0 4.710937 3.820313 8.53125 8.53125 8.53125zm0 0"/><path d="m324.722656 392.484375c0-4.714844-3.816406-8.535156-8.53125-8.535156h-25.597656c-4.710938 0-8.53125 3.820312-8.53125 8.535156 0 4.710937 3.820312 8.53125 8.53125 8.53125h25.597656c4.714844 0 8.53125-3.820313 8.53125-8.53125zm0 0"/><path d="m171.144531 401.015625h85.320313c4.714844 0 8.535156-3.820313 8.535156-8.53125 0-4.714844-3.820312-8.535156-8.535156-8.535156h-85.320313c-4.710937 0-8.53125 3.820312-8.53125 8.535156 0 4.710937 3.820313 8.53125 8.53125 8.53125zm0 0"/><path d="m171.144531 435.144531h34.128907c4.710937 0 8.53125-3.820312 8.53125-8.53125 0-4.714843-3.820313-8.535156-8.53125-8.535156h-34.128907c-4.710937 0-8.53125 3.820313-8.53125 8.535156 0 4.710938 3.820313 8.53125 8.53125 8.53125zm0 0"/><path d="m171.144531 366.886719h42.660157c4.714843 0 8.53125-3.820313 8.53125-8.53125 0-4.714844-3.820313-8.535157-8.53125-8.535157h-42.660157c-4.710937 0-8.53125 3.820313-8.53125 8.535157 0 4.710937 3.820313 8.53125 8.53125 8.53125zm0 0"/><path d="m239.402344 418.078125c-4.710938 0-8.53125 3.820313-8.53125 8.535156 0 4.710938 3.820312 8.53125 8.53125 8.53125h34.128906c4.710938 0 8.53125-3.820312 8.53125-8.53125 0-4.714843-3.820312-8.535156-8.53125-8.535156zm0 0"/></svg>